<svg width="161" height="51" viewBox="0 0 161 51" fill="none" xmlns="http://www.w3.org/2000/svg">
<path d="M5.875 0.555664H155.875C158.636 0.555664 160.875 2.79425 160.875 5.55566V45.5557C160.875 48.3171 158.636 50.5557 155.875 50.5557H5.875C3.11358 50.5557 0.875 48.3171 0.875 45.5557V5.55566C0.875 2.79425 3.11358 0.555664 5.875 0.555664Z" fill="black"/>
<path fill-rule="evenodd" clip-rule="evenodd" d="M32.3403 12.7067L31.9958 13.2135C34.6101 14.4 36.3799 16.6474 36.3799 19.2191H19.1206C19.1206 16.6474 20.8904 14.4 23.5066 13.2135L23.1601 12.7067L22.8155 12.2074L22.0477 11.0846C21.9541 10.946 21.9934 10.7602 22.1339 10.6691C22.2762 10.5778 22.4672 10.6143 22.5627 10.7529L23.3867 11.9559L23.7332 12.4607L24.0834 12.9747C25.1977 12.5536 26.4412 12.3185 27.7502 12.3185C29.0612 12.3185 30.3028 12.5536 31.4171 12.9747L31.7692 12.4607L32.9415 10.7529C33.0333 10.6143 33.2262 10.576 33.3666 10.6691C33.5089 10.7602 33.5483 10.946 33.4528 11.0846L32.6849 12.2074L32.3403 12.7067ZM19.1206 20.4187H19.2536H36.3799V33.6185C36.3799 34.6666 35.5072 35.5196 34.4285 35.5196H33.0183C33.067 35.6782 33.0951 35.844 33.0951 36.0189V39.8192C33.0951 40.8126 32.2654 41.6182 31.2429 41.6182C30.2223 41.6182 29.3945 40.8126 29.3945 39.8192V36.0189C29.3945 35.844 29.4207 35.6782 29.4675 35.5196H26.0329C26.0797 35.6782 26.1078 35.844 26.1078 36.0189V39.8192C26.1078 40.8126 25.2782 41.6182 24.2576 41.6182C23.2369 41.6182 22.4073 40.8126 22.4073 39.8192V36.0189C22.4073 35.844 22.4335 35.6782 22.4822 35.5196H21.0739C19.9952 35.5196 19.1206 34.6666 19.1206 33.6185V20.4187ZM16.0378 20.4187C15.0153 20.4187 14.1875 21.2244 14.1875 22.2176V29.9184C14.1875 30.9119 15.0153 31.7175 16.0378 31.7175C17.0584 31.7175 17.8862 30.9119 17.8862 29.9184V22.2176C17.8862 21.2244 17.0584 20.4187 16.0378 20.4187ZM37.6138 22.2176C37.6138 21.2244 38.4415 20.4187 39.4641 20.4187C40.4847 20.4187 41.3125 21.2244 41.3125 22.2176V29.9184C41.3125 30.9119 40.4847 31.7175 39.4641 31.7175C38.4415 31.7175 37.6138 30.9119 37.6138 29.9184V22.2176ZM22.5508 16.8185C22.0396 16.8185 21.6259 16.4159 21.6259 15.9184C21.6259 15.4209 22.0396 15.02 22.5508 15.02C23.0619 15.02 23.4757 15.4209 23.4757 15.9184C23.4757 16.4159 23.0619 16.8185 22.5508 16.8185ZM29.0236 15.9184C29.0236 16.4159 29.4373 16.8185 29.9485 16.8185C30.4596 16.8185 30.8734 16.4159 30.8734 15.9184C30.8734 15.4209 30.4596 15.02 29.9485 15.02C29.4373 15.02 29.0236 15.4209 29.0236 15.9184Z" fill="white"/>
<path d="M51.5342 17.5557V11.5572H53.6479C54.1196 11.5572 54.5283 11.6304 54.874 11.7769C55.2227 11.9204 55.501 12.127 55.709 12.3965C55.917 12.6661 56.0693 12.9795 56.166 13.3369C56.2656 13.6914 56.3154 14.0943 56.3154 14.5454C56.3154 14.9029 56.2861 15.231 56.2275 15.5298C56.1689 15.8257 56.0723 16.1011 55.9375 16.356C55.8027 16.6079 55.6328 16.8218 55.4277 16.9976C55.2256 17.1734 54.9736 17.3111 54.6719 17.4107C54.3701 17.5074 54.0288 17.5557 53.6479 17.5557H51.5342ZM52.5977 16.668H53.5205C54.0889 16.668 54.5137 16.4995 54.7949 16.1626C55.0791 15.8257 55.2212 15.2925 55.2212 14.563C55.2212 14.2378 55.1919 13.9507 55.1333 13.7017C55.0747 13.4527 54.981 13.2315 54.8521 13.0381C54.7231 12.8448 54.5459 12.6968 54.3203 12.5943C54.0977 12.4917 53.8311 12.4405 53.5205 12.4405H52.5977V16.668ZM57.8089 14.9805V14.1807C57.8089 13.3311 58.0345 12.6617 58.4856 12.1724C58.9368 11.6831 59.552 11.4385 60.3313 11.4385C61.1106 11.4385 61.7244 11.6831 62.1726 12.1724C62.6209 12.6617 62.845 13.3311 62.845 14.1807V14.9805C62.845 15.8243 62.6194 16.4849 62.1682 16.9624C61.72 17.437 61.1033 17.6744 60.3181 17.6744C59.5359 17.6744 58.9221 17.437 58.4768 16.9624C58.0315 16.4878 57.8089 15.8272 57.8089 14.9805ZM58.8811 14.9849C58.8811 15.5708 59.013 16.0161 59.2766 16.3208C59.5403 16.6226 59.8904 16.7735 60.3269 16.7735C60.7605 16.7735 61.1092 16.6226 61.3728 16.3208C61.6365 16.0161 61.7683 15.5708 61.7683 14.9849V14.1719C61.7683 13.583 61.635 13.1304 61.3684 12.814C61.1048 12.4976 60.7576 12.3394 60.3269 12.3394C59.8933 12.3394 59.5432 12.4976 59.2766 12.814C59.013 13.1304 58.8811 13.583 58.8811 14.1719V14.9849ZM64.0264 11.5572H65.1954L66.1622 15.9605H66.2017L67.3004 11.5572H68.2628L69.357 15.9605H69.4009L70.3633 11.5572H71.5323L69.9283 17.5557H68.9527L67.7969 13.2359H67.7574L66.6016 17.5557H65.626L64.0264 11.5572ZM72.951 17.5557V11.5572H73.8695L76.6248 15.7539H76.66V11.5572H77.6707V17.5557H76.7611L73.9969 13.3457H73.9662V17.5557H72.951ZM79.7179 17.5557V11.5572H80.7814V16.6416H83.3917V17.5557H79.7179ZM84.4721 14.9805V14.1807C84.4721 13.3311 84.6977 12.6617 85.1488 12.1724C85.6 11.6831 86.2152 11.4385 86.9945 11.4385C87.7738 11.4385 88.3876 11.6831 88.8358 12.1724C89.2841 12.6617 89.5082 13.3311 89.5082 14.1807V14.9805C89.5082 15.8243 89.2826 16.4849 88.8314 16.9624C88.3832 17.437 87.7665 17.6744 86.9813 17.6744C86.1991 17.6744 85.5854 17.437 85.14 16.9624C84.6947 16.4878 84.4721 15.8272 84.4721 14.9805ZM85.5443 14.9849C85.5443 15.5708 85.6762 16.0161 85.9398 16.3208C86.2035 16.6226 86.5536 16.7735 86.9901 16.7735C87.4237 16.7735 87.7724 16.6226 88.036 16.3208C88.2997 16.0161 88.4315 15.5708 88.4315 14.9849V14.1719C88.4315 13.583 88.2982 13.1304 88.0316 12.814C87.768 12.4976 87.4208 12.3394 86.9901 12.3394C86.5565 12.3394 86.2064 12.4976 85.9398 12.814C85.6762 13.1304 85.5443 13.583 85.5443 14.1719V14.9849ZM90.6281 17.5557L92.676 11.5572H93.8845L95.9279 17.5557H94.7897L94.28 15.9385H92.2101L91.7004 17.5557H90.6281ZM92.443 15.1299H94.0514L93.2692 12.6338H93.2297L92.443 15.1299ZM97.3906 17.5557V11.5572H99.5044C99.976 11.5572 100.385 11.6304 100.73 11.7769C101.079 11.9204 101.357 12.127 101.565 12.3965C101.773 12.6661 101.926 12.9795 102.022 13.3369C102.122 13.6914 102.172 14.0943 102.172 14.5454C102.172 14.9029 102.143 15.231 102.084 15.5298C102.025 15.8257 101.929 16.1011 101.794 16.356C101.659 16.6079 101.489 16.8218 101.284 16.9976C101.082 17.1734 100.83 17.3111 100.528 17.4107C100.226 17.5074 99.8852 17.5557 99.5044 17.5557H97.3906ZM98.4541 16.668H99.3769C99.9453 16.668 100.37 16.4995 100.651 16.1626C100.936 15.8257 101.078 15.2925 101.078 14.563C101.078 14.2378 101.048 13.9507 100.99 13.7017C100.931 13.4527 100.837 13.2315 100.708 13.0381C100.58 12.8448 100.402 12.6968 100.177 12.5943C99.9541 12.4917 99.6875 12.4405 99.3769 12.4405H98.4541V16.668ZM105.822 17.5557L107.87 11.5572H109.079L111.122 17.5557H109.984L109.474 15.9385H107.404L106.895 17.5557H105.822ZM107.637 15.1299H109.246L108.463 12.6338H108.424L107.637 15.1299ZM112.585 17.5557V11.5572H114.923C115.535 11.5572 116.02 11.7403 116.377 12.1065C116.735 12.4727 116.913 12.9429 116.913 13.5171C116.913 14.0943 116.733 14.563 116.373 14.9234C116.015 15.2837 115.529 15.4639 114.914 15.4639H113.648V17.5557H112.585ZM113.648 14.6114H114.417C114.892 14.6114 115.246 14.5323 115.481 14.3741C115.715 14.2129 115.832 13.9273 115.832 13.5171C115.832 13.1685 115.737 12.899 115.547 12.7085C115.356 12.5181 115.09 12.4229 114.747 12.4229H113.648V14.6114ZM118.508 17.5557V11.5572H119.571V14.3081H119.62L121.993 11.5572H123.175L121.008 14.1324L123.276 17.5557H121.984L120.226 14.8487L119.571 15.5738V17.5557H118.508ZM126.865 14.7212C126.865 13.6665 127.074 12.8579 127.493 12.2954C127.915 11.73 128.484 11.4473 129.198 11.4473C129.488 11.4473 129.755 11.4942 129.998 11.5879C130.244 11.6817 130.445 11.8062 130.6 11.9615C130.756 12.1138 130.879 12.2808 130.969 12.4624C131.06 12.6441 131.113 12.8286 131.128 13.0161H130.112C130.092 12.8374 129.997 12.6734 129.827 12.524C129.66 12.3745 129.442 12.2998 129.172 12.2998C128.779 12.2998 128.466 12.4932 128.232 12.8799C128 13.2666 127.88 13.8086 127.871 14.5059H127.911C128.005 14.2686 128.176 14.0635 128.425 13.8907C128.677 13.7178 128.986 13.6314 129.352 13.6314C129.601 13.6314 129.839 13.6753 130.064 13.7632C130.293 13.8511 130.496 13.9756 130.675 14.1368C130.857 14.295 131.002 14.5015 131.11 14.7564C131.218 15.0083 131.273 15.2867 131.273 15.5913C131.273 16.0191 131.176 16.3926 130.983 16.7119C130.789 17.0313 130.531 17.2715 130.209 17.4327C129.89 17.5909 129.531 17.67 129.132 17.67C128.429 17.67 127.876 17.418 127.471 16.9141C127.067 16.4102 126.865 15.6792 126.865 14.7212ZM128.003 15.6397C128.003 16.0059 128.113 16.2945 128.333 16.5054C128.552 16.7134 128.822 16.8174 129.141 16.8174C129.455 16.8174 129.718 16.7149 129.932 16.5098C130.146 16.3047 130.253 16.0147 130.253 15.6397C130.253 15.2676 130.143 14.9776 129.923 14.7696C129.707 14.5586 129.443 14.4532 129.132 14.4532C128.813 14.4532 128.545 14.5601 128.328 14.774C128.111 14.9878 128.003 15.2764 128.003 15.6397ZM132.911 17.4722C132.791 17.3579 132.731 17.21 132.731 17.0284C132.731 16.8467 132.789 16.7002 132.907 16.5889C133.027 16.4776 133.175 16.4219 133.351 16.4219C133.532 16.4219 133.683 16.479 133.803 16.5933C133.923 16.7046 133.983 16.8496 133.983 17.0284C133.983 17.21 133.923 17.3579 133.803 17.4722C133.683 17.5835 133.532 17.6392 133.351 17.6392C133.178 17.6392 133.031 17.5835 132.911 17.4722ZM135.415 14.774V14.3433C135.415 13.4556 135.612 12.7495 136.004 12.2251C136.397 11.7007 136.946 11.4385 137.652 11.4385C138.358 11.4385 138.903 11.6993 139.287 12.2207C139.671 12.7422 139.863 13.4497 139.863 14.3433V14.774C139.863 15.3453 139.78 15.8477 139.616 16.2813C139.452 16.7119 139.2 17.0518 138.861 17.3008C138.521 17.5498 138.112 17.6744 137.634 17.6744C136.928 17.6744 136.382 17.4136 135.995 16.8921C135.609 16.3706 135.415 15.6646 135.415 14.774ZM136.479 14.7652C136.479 15.4185 136.581 15.9209 136.786 16.2725C136.994 16.6211 137.279 16.7954 137.639 16.7954C137.999 16.7954 138.283 16.6197 138.491 16.2681C138.699 15.9165 138.803 15.4156 138.803 14.7652V14.3477C138.803 13.6973 138.699 13.1978 138.491 12.8492C138.283 12.4976 137.999 12.3218 137.639 12.3218C137.279 12.3218 136.994 12.4976 136.786 12.8492C136.581 13.1978 136.479 13.6973 136.479 14.3477V14.7652ZM141.281 15.5826V14.7124H143.03V12.8975H143.909V14.7124H145.667V15.5826H143.909V17.4722H143.03V15.5826H141.281Z" fill="white"/>
<path d="M50.0659 39.0557L55.2993 23.7261H58.3877L63.6099 39.0557H60.7012L59.3984 34.9229H54.1089L52.8062 39.0557H50.0659ZM54.7041 32.8565H58.8145L56.8154 26.4776H56.7144L54.7041 32.8565ZM65.2666 39.0557V27.1739H67.8721V28.8472H67.9731C68.1977 28.3381 68.6095 27.9001 69.2085 27.5332C69.8074 27.1664 70.5374 26.9829 71.3984 26.9829C72.6188 26.9829 73.6146 27.3536 74.3857 28.0948C75.1644 28.8285 75.5537 29.8654 75.5537 31.2056V39.0557H72.8921V32.0367C72.8921 30.1949 72.0722 29.274 70.4326 29.274C69.6465 29.274 69.0288 29.5173 68.5796 30.0039C68.1378 30.4906 67.917 31.1944 67.917 32.1153V39.0557H65.2666ZM77.8169 33.7774V32.4297C77.8169 30.7751 78.2137 29.4574 79.0073 28.4766C79.8009 27.4958 80.9202 27.0054 82.3652 27.0054C83.2487 27.0054 83.9861 27.1814 84.5776 27.5332C85.1691 27.8776 85.5696 28.3269 85.7793 28.8809H85.8803V22.9175H88.5307V39.0557H85.9365V37.2364H85.8354C85.6707 37.7904 85.2776 38.2583 84.6562 38.6402C84.0348 39.022 83.2711 39.2129 82.3652 39.2129C80.9277 39.2129 79.8084 38.7263 79.0073 37.753C78.2137 36.7722 77.8169 35.447 77.8169 33.7774ZM80.5234 33.5078C80.5234 34.6159 80.7518 35.4882 81.2085 36.1245C81.6652 36.7535 82.3315 37.0679 83.2075 37.0679C84.0385 37.0679 84.6899 36.7609 85.1616 36.147C85.6407 35.5256 85.8803 34.6534 85.8803 33.5303V32.6431C85.8803 31.565 85.637 30.7152 85.1504 30.0938C84.6712 29.4724 84.0086 29.1617 83.1626 29.1617C82.3016 29.1617 81.6464 29.4799 81.1972 30.1162C80.748 30.7526 80.5234 31.6174 80.5234 32.7105V33.5078ZM91.5688 39.0557V27.1739H94.2192V28.7124H94.3203C94.7695 27.5669 95.7091 26.9942 97.1391 26.9942C97.4461 26.9942 97.7381 27.0204 98.0151 27.0728V29.3975C97.8279 29.3376 97.461 29.3077 96.9145 29.3077C95.1476 29.3077 94.2641 30.2286 94.2641 32.0703V39.0557H91.5688ZM98.9755 33.5191V32.6768C98.9755 31.5687 99.1664 30.5917 99.5483 29.7456C99.9376 28.8996 100.54 28.2258 101.356 27.7242C102.172 27.2225 103.161 26.9717 104.321 26.9717C106.058 26.9717 107.38 27.4883 108.286 28.5215C109.199 29.5472 109.656 30.9286 109.656 32.6656V33.5191C109.656 35.301 109.203 36.7048 108.297 37.7305C107.391 38.7487 106.066 39.2578 104.321 39.2578C102.577 39.2578 101.248 38.7487 100.334 37.7305C99.4285 36.7123 98.9755 35.3085 98.9755 33.5191ZM101.637 33.4517C101.637 33.9608 101.682 34.425 101.772 34.8443C101.862 35.2635 102.004 35.6529 102.199 36.0122C102.393 36.3641 102.67 36.6411 103.03 36.8433C103.389 37.0454 103.82 37.1465 104.321 37.1465C104.815 37.1465 105.242 37.0492 105.601 36.8545C105.961 36.6524 106.234 36.3716 106.421 36.0122C106.616 35.6529 106.754 35.2635 106.837 34.8443C106.927 34.425 106.972 33.9608 106.972 33.4517V32.7666C106.972 32.25 106.927 31.7821 106.837 31.3628C106.754 30.9436 106.616 30.5542 106.421 30.1949C106.227 29.8355 105.95 29.5585 105.59 29.3638C105.238 29.1617 104.815 29.0606 104.321 29.0606C103.827 29.0606 103.397 29.1617 103.03 29.3638C102.67 29.566 102.393 29.8467 102.199 30.2061C102.004 30.558 101.862 30.9473 101.772 31.3741C101.682 31.7933 101.637 32.2575 101.637 32.7666V33.4517ZM112.357 25.2535C112.065 24.9839 111.919 24.6433 111.919 24.2315C111.919 23.8197 112.065 23.4828 112.357 23.2207C112.656 22.9512 113.034 22.8164 113.491 22.8164C113.97 22.8164 114.356 22.9512 114.648 23.2207C114.947 23.4828 115.097 23.8197 115.097 24.2315C115.097 24.6433 114.951 24.9839 114.659 25.2535C114.367 25.5155 113.978 25.6465 113.491 25.6465C113.034 25.6465 112.656 25.5155 112.357 25.2535ZM112.188 39.0557V27.1739H114.839V39.0557H112.188ZM117.394 33.7774V32.4297C117.394 30.7751 117.791 29.4574 118.584 28.4766C119.378 27.4958 120.497 27.0054 121.942 27.0054C122.826 27.0054 123.563 27.1814 124.155 27.5332C124.746 27.8776 125.147 28.3269 125.356 28.8809H125.457V22.9175H128.108V39.0557H125.514V37.2364H125.412C125.248 37.7904 124.855 38.2583 124.233 38.6402C123.612 39.022 122.848 39.2129 121.942 39.2129C120.505 39.2129 119.385 38.7263 118.584 37.753C117.791 36.7722 117.394 35.447 117.394 33.7774ZM120.1 33.5078C120.1 34.6159 120.329 35.4882 120.786 36.1245C121.242 36.7535 121.909 37.0679 122.785 37.0679C123.616 37.0679 124.267 36.7609 124.739 36.147C125.218 35.5256 125.457 34.6534 125.457 33.5303V32.6431C125.457 31.565 125.214 30.7152 124.727 30.0938C124.248 29.4724 123.586 29.1617 122.74 29.1617C121.879 29.1617 121.224 29.4799 120.774 30.1162C120.325 30.7526 120.1 31.6174 120.1 32.7105V33.5078Z" fill="white"/>
</svg>
