<svg width="161" height="50" viewBox="0 0 161 50" fill="none" xmlns="http://www.w3.org/2000/svg">
<path d="M5.21875 0.555664H155.219C157.979 0.555664 160.219 2.79565 160.219 5.55566V45.5557C160.219 48.3157 157.979 50.5557 155.219 50.5557H5.21875C2.45875 50.5557 0.21875 48.3157 0.21875 45.5557V5.55566C0.21875 2.79565 2.45875 0.555664 5.21875 0.555664Z" fill="black"/>
<path d="M57.3395 35.3357C56.1095 35.3357 55.0795 34.9157 54.2495 34.0857C53.4195 33.2557 52.9995 32.2157 52.9995 30.9657C52.9995 29.7257 53.4195 28.6857 54.2495 27.8457C55.0795 27.0157 56.1095 26.5957 57.3395 26.5957C58.5995 26.5957 59.6195 27.0557 60.4095 27.9657L59.6595 28.6857C59.0895 27.9757 58.3195 27.6257 57.3395 27.6257C56.4295 27.6257 55.6595 27.9357 55.0395 28.5457C54.4095 29.1557 54.0995 29.9657 54.0995 30.9657C54.0995 31.9657 54.4095 32.7657 55.0395 33.3857C55.6695 33.9957 56.4295 34.3057 57.3395 34.3057C58.3395 34.3057 59.1995 33.9057 59.9095 33.0957L60.6595 33.8457C60.2795 34.3057 59.7995 34.6657 59.2195 34.9357C58.6395 35.1957 58.0195 35.3357 57.3395 35.3357Z" fill="white"/>
<path d="M62.6901 26.7856V29.4256L62.6401 30.2156H62.6901C62.8501 29.9456 63.0901 29.7156 63.4301 29.5256C63.7601 29.3356 64.1201 29.2356 64.5001 29.2356C65.2101 29.2356 65.7501 29.4556 66.1201 29.8856C66.4901 30.3256 66.6801 30.9056 66.6801 31.6356V35.1357H65.6101V31.7956C65.6101 30.7356 65.1401 30.2056 64.2001 30.2056C63.7601 30.2056 63.3901 30.3856 63.1101 30.7356C62.8301 31.0856 62.6901 31.4956 62.6901 31.9656V35.1256H61.6201V26.7656H62.6901V26.7856Z" fill="white"/>
<path d="M69.0104 35.1456H67.9404V29.4256H68.9704V30.3556H69.0204C69.1304 30.0456 69.3504 29.7856 69.6904 29.5856C70.0304 29.3856 70.3604 29.2856 70.6804 29.2856C71.0004 29.2856 71.2704 29.3356 71.4904 29.4256L71.0804 30.4256C70.9404 30.3756 70.7504 30.3456 70.5104 30.3456C70.1204 30.3456 69.7804 30.4956 69.4804 30.8056C69.1804 31.1156 69.0304 31.5156 69.0304 32.0156V35.1456H69.0104Z" fill="white"/>
<path d="M72.3295 30.1058C72.8795 29.5258 73.5895 29.2358 74.4395 29.2358C75.2895 29.2358 75.9995 29.5258 76.5495 30.1058C77.0995 30.6859 77.3795 31.4158 77.3795 32.2859C77.3795 33.1559 77.0995 33.8859 76.5495 34.4659C75.9995 35.0458 75.2895 35.3358 74.4395 35.3358C73.5895 35.3358 72.8795 35.0458 72.3295 34.4659C71.7795 33.8859 71.4995 33.1559 71.4995 32.2859C71.4995 31.4158 71.7695 30.6859 72.3295 30.1058ZM73.1295 33.7859C73.4995 34.1658 73.9395 34.3558 74.4395 34.3558C74.9395 34.3558 75.3795 34.1658 75.7495 33.7859C76.1195 33.4059 76.2995 32.9059 76.2995 32.2859C76.2995 31.6658 76.1195 31.1658 75.7495 30.7859C75.3795 30.4059 74.9395 30.2159 74.4395 30.2159C73.9395 30.2159 73.4995 30.4059 73.1295 30.7859C72.7595 31.1658 72.5795 31.6658 72.5795 32.2859C72.5695 32.9059 72.7595 33.4059 73.1295 33.7859Z" fill="white"/>
<path d="M78.2402 35.1458V29.4258H79.2702V30.2159H79.3202C79.4802 29.9459 79.7302 29.7159 80.0702 29.5258C80.4102 29.3358 80.7402 29.2358 81.0802 29.2358C81.9702 29.2358 82.5702 29.6058 82.8902 30.3358C83.3602 29.6058 84.0202 29.2358 84.8902 29.2358C85.5702 29.2358 86.0802 29.4558 86.4202 29.8858C86.7602 30.3159 86.9302 30.9059 86.9302 31.6458V35.1458H85.8602V31.8058C85.8602 31.2259 85.7502 30.8258 85.5402 30.5758C85.3302 30.3358 85.0102 30.2159 84.5802 30.2159C84.1602 30.2159 83.8102 30.3958 83.5402 30.7559C83.2602 31.1158 83.1302 31.5258 83.1302 31.9858V35.1458H82.0602V31.8058C82.0602 31.2259 81.9502 30.8258 81.7402 30.5758C81.5302 30.3358 81.2102 30.2159 80.7802 30.2159C80.3602 30.2159 80.0102 30.3958 79.7402 30.7559C79.4602 31.1158 79.3302 31.5258 79.3302 31.9858V35.1458H78.2402Z" fill="white"/>
<path d="M90.7803 35.3356C89.9203 35.3356 89.2104 35.0456 88.6703 34.4756C88.1303 33.8956 87.8604 33.1756 87.8604 32.2956C87.8604 31.4656 88.1203 30.7456 88.6503 30.1456C89.1804 29.5456 89.8503 29.2456 90.6603 29.2456C91.5103 29.2456 92.1903 29.5256 92.7003 30.0756C93.2103 30.6256 93.4604 31.3656 93.4604 32.2956L93.4503 32.4956H88.9304C88.9604 33.0756 89.1503 33.5256 89.5103 33.8656C89.8604 34.1956 90.2803 34.3656 90.7504 34.3656C91.5203 34.3656 92.0404 34.0356 92.3103 33.3856L93.2703 33.7856C93.0803 34.2256 92.7803 34.6056 92.3503 34.8956C91.9203 35.1856 91.4003 35.3356 90.7803 35.3356ZM92.3204 31.5956C92.3003 31.2656 92.1503 30.9556 91.8703 30.6656C91.5903 30.3656 91.1804 30.2256 90.6404 30.2256C90.2403 30.2256 89.9003 30.3456 89.6104 30.5956C89.3204 30.8456 89.1203 31.1756 89.0103 31.5956H92.3204Z" fill="white"/>
<path d="M106.46 26.7856L104.23 35.1456H103.13L101.33 29.6356H101.28L99.4796 35.1456H98.3796L96.0596 26.7856H97.1796L98.9396 33.3556H98.9896L100.8 27.9056H101.8L103.61 33.3556H103.66L105.33 26.7856H106.46Z" fill="white"/>
<path d="M109.25 35.3356C108.39 35.3356 107.68 35.0456 107.14 34.4756C106.6 33.8956 106.33 33.1756 106.33 32.2956C106.33 31.4656 106.59 30.7456 107.12 30.1456C107.65 29.5456 108.32 29.2456 109.13 29.2456C109.98 29.2456 110.66 29.5256 111.17 30.0756C111.68 30.6256 111.93 31.3656 111.93 32.2956L111.92 32.4956H107.4C107.43 33.0756 107.62 33.5256 107.98 33.8656C108.33 34.1956 108.75 34.3656 109.22 34.3656C109.99 34.3656 110.51 34.0356 110.78 33.3856L111.74 33.7856C111.55 34.2256 111.25 34.6056 110.82 34.8956C110.4 35.1856 109.87 35.3356 109.25 35.3356ZM110.79 31.5956C110.77 31.2656 110.62 30.9556 110.34 30.6656C110.06 30.3656 109.65 30.2256 109.11 30.2256C108.71 30.2256 108.37 30.3456 108.08 30.5956C107.79 30.8456 107.59 31.1756 107.48 31.5956H110.79Z" fill="white"/>
<path d="M115.94 35.3356C115.5 35.3356 115.11 35.2456 114.77 35.0556C114.42 34.8656 114.17 34.6357 113.99 34.3556H113.94V35.1456H112.91V26.7856H113.98V29.4256L113.93 30.2156H113.98C114.15 29.9356 114.41 29.7056 114.76 29.5156C115.11 29.3256 115.5 29.2356 115.93 29.2356C116.67 29.2356 117.31 29.5256 117.84 30.1156C118.38 30.6956 118.65 31.4256 118.65 32.2856C118.65 33.1456 118.38 33.8756 117.84 34.4556C117.32 35.0456 116.68 35.3356 115.94 35.3356ZM115.76 34.3556C116.26 34.3556 116.69 34.1656 117.04 33.7856C117.4 33.4056 117.58 32.9056 117.58 32.2856C117.58 31.6656 117.4 31.1656 117.04 30.7856C116.68 30.4056 116.25 30.2156 115.76 30.2156C115.25 30.2156 114.82 30.4056 114.47 30.7756C114.12 31.1456 113.94 31.6556 113.94 32.2856C113.94 32.9156 114.12 33.4156 114.47 33.7956C114.83 34.1656 115.26 34.3556 115.76 34.3556Z" fill="white"/>
<path d="M124.401 35.3354C123.791 35.3354 123.201 35.1355 122.621 34.7354C122.041 34.3354 121.661 33.7855 121.481 33.0655L122.461 32.6654C122.581 33.1255 122.821 33.5154 123.181 33.8254C123.541 34.1454 123.951 34.2954 124.401 34.2954C124.871 34.2954 125.271 34.1754 125.601 33.9254C125.931 33.6754 126.101 33.3455 126.101 32.9254C126.101 32.4554 125.931 32.0955 125.601 31.8455C125.271 31.5955 124.751 31.3554 124.031 31.1354C123.291 30.9055 122.731 30.6054 122.351 30.2354C121.971 29.8654 121.781 29.3954 121.781 28.8155C121.781 28.2155 122.02 27.6955 122.49 27.2555C122.96 26.8155 123.581 26.5854 124.351 26.5854C125.061 26.5854 125.631 26.7654 126.081 27.1154C126.521 27.4655 126.811 27.8554 126.941 28.2755L125.961 28.6855C125.891 28.4254 125.721 28.1754 125.441 27.9455C125.161 27.7155 124.811 27.6054 124.371 27.6054C123.961 27.6054 123.61 27.7155 123.31 27.9455C123.02 28.1754 122.871 28.4655 122.871 28.8055C122.871 29.1154 123.001 29.3755 123.271 29.5955C123.541 29.8054 123.931 30.0055 124.451 30.1754C124.861 30.3055 125.211 30.4355 125.481 30.5655C125.761 30.6855 126.041 30.8554 126.321 31.0655C126.601 31.2755 126.821 31.5255 126.961 31.8354C127.101 32.1454 127.181 32.4955 127.181 32.9055C127.181 33.3055 127.101 33.6754 126.931 33.9955C126.761 34.3155 126.541 34.5655 126.261 34.7555C125.981 34.9455 125.691 35.0854 125.371 35.1855C125.061 35.2855 124.731 35.3354 124.401 35.3354Z" fill="white"/>
<path d="M130.49 35.2358C129.89 35.2358 129.43 35.0758 129.12 34.7558C128.8 34.4358 128.65 33.9858 128.65 33.4058V30.4058H127.65V29.4258H128.65V27.6758H129.72V29.4258H131.12V30.4058H129.72V33.3258C129.72 33.9458 129.98 34.2558 130.49 34.2558C130.68 34.2558 130.85 34.2258 130.98 34.1658L131.35 35.0858C131.12 35.1858 130.83 35.2358 130.49 35.2358Z" fill="white"/>
<path d="M132.59 30.1058C133.14 29.5258 133.85 29.2358 134.7 29.2358C135.56 29.2358 136.26 29.5258 136.81 30.1058C137.36 30.6859 137.64 31.4158 137.64 32.2859C137.64 33.1559 137.36 33.8859 136.81 34.4659C136.26 35.0458 135.55 35.3358 134.7 35.3358C133.84 35.3358 133.14 35.0458 132.59 34.4659C132.04 33.8859 131.76 33.1559 131.76 32.2859C131.76 31.4158 132.04 30.6859 132.59 30.1058ZM133.39 33.7859C133.76 34.1658 134.2 34.3558 134.7 34.3558C135.21 34.3558 135.64 34.1658 136.01 33.7859C136.38 33.4059 136.56 32.9059 136.56 32.2859C136.56 31.6658 136.37 31.1658 136.01 30.7859C135.64 30.4059 135.2 30.2159 134.7 30.2159C134.19 30.2159 133.76 30.4059 133.39 30.7859C133.02 31.1658 132.84 31.6658 132.84 32.2859C132.84 32.9059 133.02 33.4059 133.39 33.7859Z" fill="white"/>
<path d="M139.58 35.1456H138.51V29.4256H139.54V30.3556H139.59C139.7 30.0456 139.92 29.7856 140.26 29.5856C140.6 29.3856 140.93 29.2856 141.25 29.2856C141.57 29.2856 141.84 29.3356 142.06 29.4256L141.65 30.4256C141.51 30.3756 141.32 30.3456 141.08 30.3456C140.69 30.3456 140.35 30.4956 140.05 30.8056C139.75 31.1156 139.6 31.5156 139.6 32.0156V35.1456H139.58Z" fill="white"/>
<path d="M144.99 35.3356C144.13 35.3356 143.42 35.0456 142.88 34.4756C142.34 33.8956 142.07 33.1756 142.07 32.2956C142.07 31.4656 142.33 30.7456 142.86 30.1456C143.39 29.5456 144.06 29.2456 144.87 29.2456C145.72 29.2456 146.4 29.5256 146.91 30.0756C147.42 30.6256 147.67 31.3656 147.67 32.2956L147.66 32.4956H143.14C143.17 33.0756 143.36 33.5256 143.72 33.8656C144.07 34.1956 144.49 34.3656 144.96 34.3656C145.73 34.3656 146.25 34.0356 146.52 33.3856L147.48 33.7856C147.29 34.2256 146.99 34.6056 146.56 34.8956C146.13 35.1856 145.61 35.3356 144.99 35.3356ZM146.53 31.5956C146.51 31.2656 146.36 30.9556 146.08 30.6656C145.8 30.3656 145.39 30.2256 144.85 30.2256C144.45 30.2256 144.11 30.3456 143.82 30.5956C143.53 30.8456 143.33 31.1756 143.22 31.5956H146.53Z" fill="white"/>
<path d="M53.6191 22.1593L56.2773 15.1006H57.3048L59.963 22.1593H58.9578L58.2765 20.2494H55.3056L54.6131 22.1593H53.6191ZM55.6183 19.3895H57.9638L56.8134 16.2063H56.7687L55.6183 19.3895Z" fill="white"/>
<path d="M61.5932 22.1593L59.6387 17.3232H60.6216L62.04 21.0759H62.0623L63.5031 17.3232H64.4748L62.4979 22.1593H61.5932Z" fill="white"/>
<path d="M66.4964 22.3158C65.9827 22.3158 65.5582 22.1706 65.212 21.8691C64.8658 21.5675 64.6982 21.1766 64.6982 20.6964C64.6982 20.1714 64.8993 19.7582 65.3125 19.4566C65.7258 19.1551 66.2284 19.0099 66.8203 19.0099C67.3564 19.0099 67.792 19.1104 68.1271 19.3003V19.1662C68.1271 18.8088 68.0042 18.5296 67.7585 18.3174C67.5128 18.1052 67.2112 17.9935 66.865 17.9935C66.5969 17.9935 66.3624 18.0605 66.1502 18.1834C65.938 18.3062 65.7928 18.4738 65.7146 18.6971L64.8881 18.3397C64.9998 18.0493 65.2232 17.7813 65.5471 17.5356C65.871 17.2899 66.3065 17.167 66.8538 17.167C67.4681 17.167 67.9819 17.3457 68.3951 17.7143C68.8084 18.0717 69.0094 18.5854 69.0094 19.2444V22.1595H68.1382V21.4893H68.0936C67.7138 22.0366 67.1889 22.3158 66.4964 22.3158ZM66.6416 21.4893C67.0213 21.4893 67.3564 21.3441 67.658 21.0649C67.9595 20.7857 68.1159 20.4506 68.1159 20.0709C67.859 19.8587 67.4793 19.7582 66.9655 19.7582C66.5299 19.7582 66.1949 19.8587 65.9715 20.0486C65.7481 20.2384 65.6364 20.4618 65.6364 20.7187C65.6364 20.9532 65.7369 21.1431 65.938 21.2771C66.139 21.4112 66.3736 21.4893 66.6416 21.4893Z" fill="white"/>
<path d="M70.9983 16.1057C70.8754 16.2285 70.719 16.2955 70.5403 16.2955C70.3616 16.2955 70.2164 16.2285 70.0824 16.1057C69.9596 15.9828 69.8926 15.8265 69.8926 15.6477C69.8926 15.469 69.9596 15.3239 70.0824 15.1898C70.2053 15.067 70.3616 15 70.5403 15C70.719 15 70.8642 15.067 70.9983 15.1898C71.1211 15.3127 71.1881 15.469 71.1881 15.6477C71.1881 15.8376 71.1211 15.9828 70.9983 16.1057ZM70.9983 22.1592H70.0936V17.3231H70.9983V22.1592Z" fill="white"/>
<path d="M73.0868 22.1593H72.1821V15.1006H73.0868V22.1593Z" fill="white"/>
<path d="M75.6766 22.3158C75.1628 22.3158 74.7384 22.1706 74.3921 21.8691C74.0459 21.5675 73.8784 21.1766 73.8784 20.6964C73.8784 20.1714 74.0794 19.7582 74.4927 19.4566C74.9059 19.1551 75.4085 19.0099 76.0005 19.0099C76.5366 19.0099 76.9721 19.1104 77.3072 19.3003V19.1662C77.3072 18.8088 77.1844 18.5296 76.9386 18.3174C76.6929 18.1052 76.3914 17.9935 76.0451 17.9935C75.7771 17.9935 75.5425 18.0605 75.3303 18.1834C75.1181 18.3062 74.9729 18.4738 74.8947 18.6971L74.0571 18.3397C74.1688 18.0493 74.3921 17.7813 74.716 17.5356C75.0399 17.2899 75.4755 17.167 76.0228 17.167C76.6371 17.167 77.1508 17.3457 77.5641 17.7143C77.9773 18.0717 78.1784 18.5854 78.1784 19.2444V22.1595H77.3072V21.4893H77.2625C76.9051 22.0366 76.369 22.3158 75.6766 22.3158ZM75.8218 21.4893C76.2015 21.4893 76.5366 21.3441 76.8381 21.0649C77.1397 20.7857 77.296 20.4506 77.296 20.0709C77.0392 19.8587 76.6594 19.7582 76.1457 19.7582C75.7101 19.7582 75.375 19.8587 75.1516 20.0486C74.9283 20.2384 74.8166 20.4618 74.8166 20.7187C74.8166 20.9532 74.9171 21.1431 75.1181 21.2771C75.3303 21.4112 75.5649 21.4893 75.8218 21.4893Z" fill="white"/>
<path d="M81.7539 22.3157C81.3853 22.3157 81.0503 22.2375 80.7599 22.0811C80.4695 21.9248 80.2461 21.7237 80.1009 21.4892H80.0563V22.1593H79.1963V15.1006H80.1009V17.3344L80.0563 18.0045H80.1009C80.2461 17.77 80.4695 17.5689 80.7599 17.4126C81.0503 17.2562 81.3853 17.178 81.7539 17.178C82.3794 17.178 82.9155 17.4237 83.3734 17.9152C83.8313 18.4066 84.0547 19.0209 84.0547 19.7469C84.0547 20.4728 83.8313 21.0871 83.3734 21.5785C82.9155 22.07 82.3794 22.3157 81.7539 22.3157ZM81.6087 21.4892C82.0331 21.4892 82.3905 21.3328 82.6921 21.0089C82.9937 20.685 83.15 20.2718 83.15 19.7357C83.15 19.2108 82.9937 18.7863 82.6921 18.4736C82.3905 18.1497 82.0331 17.9933 81.6087 17.9933C81.1843 17.9933 80.8157 18.1497 80.5142 18.4624C80.2126 18.7752 80.0674 19.1996 80.0674 19.7357C80.0674 20.2718 80.2126 20.6962 80.5142 21.0089C80.8157 21.3328 81.1731 21.4892 81.6087 21.4892Z" fill="white"/>
<path d="M85.7411 22.1593H84.8364V15.1006H85.7411V22.1593Z" fill="white"/>
<path d="M88.9796 22.3154C88.2537 22.3154 87.6617 22.0697 87.2038 21.5894C86.7459 21.098 86.5225 20.4837 86.5225 19.7465C86.5225 19.0429 86.7459 18.4398 87.1926 17.9372C87.6394 17.4346 88.209 17.1777 88.8903 17.1777C89.6051 17.1777 90.1859 17.4123 90.6103 17.8814C91.0347 18.3504 91.2581 18.9759 91.2581 19.7577L91.2469 19.9252H87.4272C87.4495 20.4167 87.617 20.7964 87.9186 21.0756C88.2202 21.3549 88.5664 21.5001 88.9685 21.5001C89.6163 21.5001 90.063 21.2208 90.2864 20.6736L91.0905 21.0086C90.9342 21.3884 90.6773 21.7011 90.3087 21.9468C89.9513 22.1813 89.5046 22.3154 88.9796 22.3154ZM90.2864 19.1546C90.264 18.8754 90.1412 18.6185 89.9066 18.3616C89.6721 18.1159 89.3259 17.9819 88.8679 17.9819C88.5329 17.9819 88.2425 18.0824 87.9968 18.2946C87.7511 18.5068 87.5835 18.786 87.4942 19.1434H90.2864V19.1546Z" fill="white"/>
<path d="M95.2336 16.1057C95.1108 16.2285 94.9544 16.2955 94.7757 16.2955C94.597 16.2955 94.4518 16.2285 94.3178 16.1057C94.1837 15.9828 94.1279 15.8265 94.1279 15.6477C94.1279 15.469 94.1949 15.3239 94.3178 15.1898C94.4406 15.067 94.597 15 94.7757 15C94.9544 15 95.0996 15.067 95.2336 15.1898C95.3565 15.3127 95.4235 15.469 95.4235 15.6477C95.4235 15.8376 95.3565 15.9828 95.2336 16.1057ZM95.2336 22.1592H94.3289V17.3231H95.2336V22.1592Z" fill="white"/>
<path d="M97.2897 17.3233V17.9935H97.3344C97.4684 17.7589 97.6694 17.569 97.9598 17.4015C98.2391 17.2451 98.5406 17.1558 98.8645 17.1558C99.4676 17.1558 99.9256 17.3345 100.238 17.7031C100.551 18.0716 100.707 18.563 100.707 19.1774V22.1371H99.8027V19.3114C99.8027 18.4178 99.4006 17.9711 98.6076 17.9711C98.2279 17.9711 97.9263 18.1163 97.6918 18.4178C97.4572 18.7194 97.3344 19.0657 97.3344 19.4566V22.1259H96.4297V17.2898H97.2897V17.3233Z" fill="white"/>
<path d="M106.023 22.2377C105.52 22.2377 105.129 22.1038 104.861 21.8356C104.593 21.5677 104.459 21.1878 104.459 20.6964V18.1611H103.61V17.3347H104.459V15.8604H105.364V17.3347H106.548V18.1611H105.364V20.6295C105.364 21.1544 105.576 21.4225 106.012 21.4225C106.179 21.4225 106.313 21.4001 106.425 21.3442L106.738 22.126C106.559 22.1931 106.313 22.2377 106.023 22.2377Z" fill="white"/>
<path d="M108.38 15.0897V17.3235L108.335 17.9936H108.38C108.514 17.7591 108.715 17.5692 109.005 17.4017C109.284 17.2453 109.586 17.1559 109.91 17.1559C110.513 17.1559 110.971 17.3346 111.284 17.7032C111.596 18.0718 111.753 18.5632 111.753 19.1775V22.1372H110.848V19.3115C110.848 18.418 110.446 17.9713 109.653 17.9713C109.273 17.9713 108.972 18.1165 108.737 18.418C108.503 18.7196 108.38 19.0658 108.38 19.4567V22.1261H107.475V15.0674H108.38V15.0897Z" fill="white"/>
<path d="M115.014 22.3154C114.288 22.3154 113.696 22.0697 113.238 21.5894C112.78 21.098 112.557 20.4837 112.557 19.7465C112.557 19.0429 112.78 18.4398 113.227 17.9372C113.673 17.4346 114.243 17.1777 114.924 17.1777C115.639 17.1777 116.22 17.4123 116.644 17.8814C117.069 18.3504 117.292 18.9759 117.292 19.7577L117.281 19.9252H113.461C113.484 20.4167 113.651 20.7964 113.953 21.0756C114.254 21.3549 114.6 21.5001 115.003 21.5001C115.65 21.5001 116.097 21.2208 116.32 20.6736L117.125 21.0086C116.968 21.3884 116.711 21.7011 116.343 21.9468C115.985 22.1813 115.539 22.3154 115.014 22.3154ZM116.309 19.1546C116.287 18.8754 116.164 18.6185 115.93 18.3616C115.695 18.1159 115.349 17.9819 114.891 17.9819C114.556 17.9819 114.265 18.0824 114.02 18.2946C113.774 18.5068 113.606 18.786 113.517 19.1434H116.309V19.1546Z" fill="white"/>
<path d="M10.2188 10.5557V38.2057C10.2188 39.5057 11.2887 40.5757 12.5887 40.5757H42.6087C43.9087 40.5757 44.9787 39.5057 44.9787 38.2057V10.5557H10.2188ZM31.5487 16.8757H23.6488C22.7787 16.8757 22.0688 16.1656 22.0688 15.2957C22.0688 14.4257 22.7787 13.7157 23.6488 13.7157H31.5487C32.4188 13.7157 33.1287 14.4257 33.1287 15.2957C33.1287 16.1656 32.4188 16.8757 31.5487 16.8757Z" fill="white"/>
<path d="M27.599 31.3755H40.959C38.469 26.5155 33.429 23.1855 27.599 23.1855C22.299 23.1855 17.649 25.9456 14.979 30.0956L21.089 40.5755H21.209C20.929 39.8355 20.769 39.0356 20.769 38.1956C20.779 34.4255 23.829 31.3755 27.599 31.3755Z" fill="#DB4437"/>
<path d="M14.9794 30.0957C13.4694 32.4357 12.5894 35.2157 12.5894 38.1957C12.5894 39.0057 12.6694 39.7957 12.7994 40.5757H14.9794H21.0994L14.9794 30.0957Z" fill="#0F9D58"/>
<path d="M40.9591 31.3755H27.5991C31.3691 31.3755 34.4191 34.4355 34.4191 38.1955C34.4191 39.0355 34.2591 39.8355 33.9791 40.5755H42.3991C42.5191 39.7955 42.6091 39.0055 42.6091 38.1955C42.6091 35.7355 42.0091 33.4255 40.9591 31.3755Z" fill="#FFCD40"/>
<path d="M27.5998 31.3755C23.8298 31.3755 20.7798 34.4355 20.7798 38.1955C20.7798 39.0355 20.9398 39.8355 21.2198 40.5755H22.2898H22.6998C22.6398 40.4455 22.5798 40.3155 22.5198 40.1755C22.2798 39.5655 22.1398 38.8955 22.1398 38.1955C22.1398 35.4655 24.1498 33.2055 26.7698 32.8055C27.0398 32.7655 27.3198 32.7355 27.5998 32.7355C27.8798 32.7355 28.1598 32.7655 28.4298 32.8055C31.0498 33.2055 33.0598 35.4655 33.0598 38.1955C33.0598 38.8955 32.9198 39.5655 32.6798 40.1755C32.6298 40.3155 32.5698 40.4455 32.4998 40.5755H32.9098H33.9798C34.2598 39.8355 34.4198 39.0355 34.4198 38.1955C34.4198 34.4255 31.3698 31.3755 27.5998 31.3755Z" fill="#F1F1F1"/>
<path d="M28.4292 32.8058C28.1592 32.7658 27.8792 32.7358 27.5992 32.7358C27.3192 32.7358 27.0392 32.7658 26.7692 32.8058C24.1492 33.2058 22.1392 35.4659 22.1392 38.1959C22.1392 38.8958 22.2792 39.5659 22.5192 40.1758C22.5692 40.3159 22.6292 40.4459 22.6992 40.5758H32.5092C32.5692 40.4459 32.6292 40.3159 32.6892 40.1758C32.9292 39.5659 33.0692 38.8958 33.0692 38.1959C33.0592 35.4659 31.0492 33.2058 28.4292 32.8058Z" fill="#4285F4"/>
<path d="M10.2188 10.5557H44.9787V25.5657H10.2188V10.5557Z" fill="#212121" fill-opacity="0.05"/>
</svg>
