<svg width="161" height="50" viewBox="0 0 161 50" fill="none" xmlns="http://www.w3.org/2000/svg">
<path d="M5.21875 0.555664H155.219C157.98 0.555664 160.219 2.79423 160.219 5.55566V45.5557C160.219 48.3171 157.98 50.5557 155.219 50.5557H5.21875C2.45733 50.5557 0.21875 48.3171 0.21875 45.5557V5.55566C0.21875 2.79423 2.45733 0.555664 5.21875 0.555664Z" fill="black"/>
<path fill-rule="evenodd" clip-rule="evenodd" d="M31.6546 9.05566C31.9229 10.8779 31.1812 12.663 30.2028 13.926C29.1561 15.2807 27.3518 16.3285 25.6037 16.2738C25.2845 14.5293 26.1016 12.7318 27.0958 11.5235C28.1864 10.1899 30.0555 9.16676 31.6546 9.05566ZM36.9061 34.7038C37.8073 33.3226 38.144 32.6259 38.8436 31.0665C33.7552 29.1315 32.9399 21.8975 37.9757 19.121C36.4397 17.1947 34.2812 16.0782 32.2438 16.0782C30.7757 16.0782 29.7699 16.4613 28.8554 16.8096C28.0934 17.0998 27.3949 17.3659 26.5452 17.3659C25.6271 17.3659 24.8141 17.0743 23.9628 16.7691C23.0273 16.4337 22.0456 16.0817 20.8274 16.0817C18.541 16.0817 16.1073 17.4787 14.5643 19.8671C12.3953 23.231 12.7653 29.5548 16.2826 34.9419C17.5398 36.8699 19.2195 39.0361 21.4166 39.0555C22.3282 39.0645 22.9348 38.7925 23.5913 38.498C24.3426 38.161 25.1593 37.7947 26.5733 37.7872C27.9956 37.7787 28.7994 38.1494 29.5408 38.4914C30.1804 38.7864 30.7736 39.06 31.6774 39.0502C33.8762 39.0326 35.6489 36.6318 36.9061 34.7038Z" fill="white"/>
<path d="M51.3779 11.0572V17.0557H53.4916C55.4428 17.0557 56.1591 15.7857 56.1591 14.0454C56.1591 12.2876 55.4252 11.0572 53.4916 11.0572H51.3779ZM52.4414 11.9449H53.3642C54.643 11.9449 55.0649 12.815 55.0649 14.063C55.0649 15.544 54.4804 16.168 53.3642 16.168H52.4414V11.9449ZM58.7292 13.6719C58.7292 12.459 59.3445 11.8394 60.175 11.8394C61.01 11.8394 61.6164 12.459 61.6164 13.6719V14.4849C61.6164 15.6978 61.01 16.2735 60.175 16.2735C59.3445 16.2735 58.7292 15.6978 58.7292 14.4849V13.6719ZM57.6526 14.4805C57.6526 16.1768 58.6106 17.1744 60.1706 17.1744C61.7307 17.1744 62.6975 16.1768 62.6975 14.4805V13.6807C62.6975 11.98 61.7439 10.9385 60.1794 10.9385C58.6238 10.9385 57.6526 11.9756 57.6526 13.6807V14.4805ZM66.4541 17.0557L67.6099 12.7359H67.6494L68.8052 17.0557H69.7764L71.3804 11.0572H70.2422L69.249 15.4605H69.2051L68.1108 11.0572H67.1528L66.0542 15.4605H66.0147L65.0171 11.0572H63.8789L65.4785 17.0557H66.4541ZM73.8011 17.0557V12.8457H73.8318L76.6136 17.0557H77.5232V11.0572H76.5301V15.2539H76.4949L73.722 11.0572H72.8035V17.0557H73.8011ZM83.2442 16.1416H80.6339V11.0572H79.5704V17.0557H83.2442V16.1416ZM85.4891 13.6719C85.4891 12.459 86.1043 11.8394 86.9349 11.8394C87.7699 11.8394 88.3763 12.459 88.3763 13.6719V14.4849C88.3763 15.6978 87.7699 16.2735 86.9349 16.2735C86.1043 16.2735 85.4891 15.6978 85.4891 14.4849V13.6719ZM84.4124 14.4805C84.4124 16.1768 85.3705 17.1744 86.9305 17.1744C88.4906 17.1744 89.4574 16.1768 89.4574 14.4805V13.6807C89.4574 11.98 88.5038 10.9385 86.9393 10.9385C85.3836 10.9385 84.4124 11.9756 84.4124 13.6807V14.4805ZM91.6451 17.0557L92.1549 15.4385H94.2247L94.7345 17.0557H95.8727L93.8292 11.0572H92.6207L90.5729 17.0557H91.6451ZM93.214 12.1338L93.9962 14.6299H92.3878L93.1744 12.1338H93.214ZM97.331 11.0572V17.0557H99.4447C101.396 17.0557 102.113 15.7857 102.113 14.0454C102.113 12.2876 101.379 11.0572 99.4447 11.0572H97.331ZM98.3944 11.9449H99.3173C100.596 11.9449 101.018 12.815 101.018 14.063C101.018 15.544 100.434 16.168 99.3173 16.168H98.3944V11.9449ZM107.187 13.6719C107.187 12.459 107.802 11.8394 108.633 11.8394C109.468 11.8394 110.074 12.459 110.074 13.6719V14.4849C110.074 15.6978 109.468 16.2735 108.633 16.2735C107.802 16.2735 107.187 15.6978 107.187 14.4849V13.6719ZM106.11 14.4805C106.11 16.1768 107.068 17.1744 108.628 17.1744C110.188 17.1744 111.155 16.1768 111.155 14.4805V13.6807C111.155 11.98 110.201 10.9385 108.637 10.9385C107.081 10.9385 106.11 11.9756 106.11 13.6807V14.4805ZM113.954 17.0557V12.8457H113.984L116.766 17.0557H117.676V11.0572H116.683V15.2539H116.648L113.875 11.0572H112.956V17.0557H113.954ZM124.438 17.0557V11.958H126.182V11.0572H121.643V11.958H123.383V17.0557H124.438ZM132.439 17.0557V11.0572H131.376V13.5313H128.704V11.0572H127.641V17.0557H128.704V14.4278H131.376V17.0557H132.439ZM138.266 16.168H135.537V14.4322H138.103V13.5928H135.537V11.9449H138.266V11.0572H134.478V17.0557H138.266V16.168Z" fill="white"/>
<path d="M49.4097 39.0557L54.6431 23.7261H57.7315L62.9537 39.0557H60.045L58.7422 34.9229H53.4527L52.15 39.0557H49.4097ZM54.0479 32.8565H58.1583L56.1592 26.4776H56.0582L54.0479 32.8565ZM64.6216 43.065V27.1626H67.2159V28.8809H67.3169C67.564 28.3119 67.9908 27.8589 68.5972 27.522C69.2036 27.1776 69.9523 27.0054 70.8433 27.0054C72.1984 27.0054 73.2803 27.4808 74.0889 28.4317C74.905 29.3825 75.313 30.7077 75.313 32.4073V33.8335C75.313 35.5331 74.905 36.8545 74.0889 37.7979C73.2803 38.7412 72.1835 39.2129 70.7984 39.2129C69.9299 39.2129 69.2111 39.0445 68.6421 38.7076C68.0731 38.3706 67.6538 37.9289 67.3843 37.3824H67.272V43.065H64.6216ZM67.272 33.6875C67.272 34.6683 67.5153 35.4769 68.002 36.1133C68.4961 36.7422 69.1587 37.0567 69.9898 37.0567C70.7834 37.0567 71.416 36.7647 71.8877 36.1807C72.3669 35.5892 72.6065 34.732 72.6065 33.6089V32.6094C72.6065 31.5013 72.3706 30.6516 71.899 30.0601C71.4273 29.4611 70.7759 29.1617 69.9449 29.1617C69.1213 29.1617 68.4699 29.4649 67.9908 30.0713C67.5116 30.6703 67.272 31.4714 67.272 32.4746V33.6875ZM77.6436 43.065V27.1626H80.2378V28.8809H80.3389C80.5859 28.3119 81.0127 27.8589 81.6192 27.522C82.2256 27.1776 82.9743 27.0054 83.8652 27.0054C85.2204 27.0054 86.3023 27.4808 87.1109 28.4317C87.9269 29.3825 88.335 30.7077 88.335 32.4073V33.8335C88.335 35.5331 87.9269 36.8545 87.1109 37.7979C86.3023 38.7412 85.2054 39.2129 83.8203 39.2129C82.9518 39.2129 82.2331 39.0445 81.6641 38.7076C81.0951 38.3706 80.6758 37.9289 80.4063 37.3824H80.294V43.065H77.6436ZM80.294 33.6875C80.294 34.6683 80.5373 35.4769 81.0239 36.1133C81.5181 36.7422 82.1807 37.0567 83.0117 37.0567C83.8054 37.0567 84.438 36.7647 84.9097 36.1807C85.3888 35.5892 85.6284 34.732 85.6284 33.6089V32.6094C85.6284 31.5013 85.3926 30.6516 84.9209 30.0601C84.4492 29.4611 83.7979 29.1617 82.9668 29.1617C82.1432 29.1617 81.4919 29.4649 81.0127 30.0713C80.5335 30.6703 80.294 31.4714 80.294 32.4746V33.6875ZM94.1191 34.7657H96.7583C96.8182 35.447 97.1401 36.016 97.7241 36.4727C98.3081 36.9219 99.1054 37.1465 100.116 37.1465C101.075 37.1465 101.823 36.9406 102.362 36.5288C102.909 36.1171 103.182 35.5593 103.182 34.8555C103.182 34.3015 102.988 33.8597 102.598 33.5303C102.216 33.2009 101.61 32.9351 100.779 32.7329L98.3193 32.1377C97.7877 32.0179 97.3011 31.8532 96.8593 31.6436C96.4251 31.4265 96.0246 31.1569 95.6577 30.835C95.2983 30.5056 95.0176 30.0975 94.8154 29.6109C94.6133 29.1242 94.5122 28.5777 94.5122 27.9712C94.5122 27.0204 94.7705 26.1931 95.2871 25.4893C95.8037 24.778 96.4813 24.2502 97.3198 23.9058C98.1583 23.5614 99.0905 23.3892 100.116 23.3892C101.15 23.3892 102.082 23.5651 102.913 23.917C103.751 24.2689 104.418 24.793 104.912 25.4893C105.413 26.1781 105.672 26.9792 105.687 27.8926H103.104C103.051 27.2263 102.767 26.676 102.25 26.2417C101.734 25.8075 101.015 25.5904 100.094 25.5904C99.2327 25.5904 98.5402 25.785 98.0161 26.1744C97.4995 26.5562 97.2412 27.084 97.2412 27.7578C97.2412 28.7536 97.945 29.4162 99.3525 29.7456L101.823 30.3409C102.437 30.4831 102.976 30.6591 103.441 30.8687C103.905 31.0783 104.328 31.3479 104.71 31.6773C105.099 32.0067 105.395 32.4185 105.597 32.9126C105.799 33.4068 105.9 33.9758 105.9 34.6197C105.9 36.1021 105.354 37.2626 104.26 38.1011C103.175 38.9397 101.73 39.3589 99.9253 39.3589C99.0942 39.3589 98.3418 39.2653 97.6679 39.0782C97.0016 38.891 96.4513 38.6477 96.0171 38.3482C95.5903 38.0487 95.2309 37.6968 94.9389 37.2925C94.6469 36.8807 94.4373 36.4689 94.31 36.0572C94.1902 35.6379 94.1266 35.2074 94.1191 34.7657ZM107.355 29.3413V27.2637H109.062V24.2989H111.645V27.2637H113.958V29.3413H111.645V35.4395C111.645 36.0609 111.776 36.4877 112.038 36.7198C112.307 36.9444 112.775 37.0567 113.442 37.0567C113.734 37.0567 113.928 37.0492 114.026 37.0342V39.0445C113.644 39.1044 113.232 39.1343 112.79 39.1343C111.824 39.1343 111.064 39.0108 110.51 38.7637C109.956 38.5166 109.567 38.1535 109.342 37.6744C109.125 37.1877 109.017 36.5326 109.017 35.709V29.3413H107.355ZM115.491 33.5191V32.6768C115.491 31.5687 115.682 30.5917 116.064 29.7456C116.453 28.8996 117.056 28.2258 117.872 27.7242C118.688 27.2225 119.677 26.9717 120.837 26.9717C122.574 26.9717 123.895 27.4883 124.801 28.5215C125.715 29.5472 126.172 30.9286 126.172 32.6656V33.5191C126.172 35.301 125.719 36.7048 124.813 37.7305C123.907 38.7487 122.582 39.2578 120.837 39.2578C119.093 39.2578 117.764 38.7487 116.85 37.7305C115.944 36.7123 115.491 35.3085 115.491 33.5191ZM118.153 33.4517C118.153 33.9608 118.198 34.425 118.288 34.8443C118.378 35.2635 118.52 35.6529 118.714 36.0122C118.909 36.3641 119.186 36.6411 119.546 36.8433C119.905 37.0454 120.335 37.1465 120.837 37.1465C121.331 37.1465 121.758 37.0492 122.117 36.8545C122.477 36.6524 122.75 36.3716 122.937 36.0122C123.132 35.6529 123.27 35.2635 123.353 34.8443C123.443 34.425 123.487 33.9608 123.487 33.4517V32.7666C123.487 32.25 123.443 31.7821 123.353 31.3628C123.27 30.9436 123.132 30.5542 122.937 30.1949C122.742 29.8355 122.465 29.5585 122.106 29.3638C121.754 29.1617 121.331 29.0606 120.837 29.0606C120.343 29.0606 119.912 29.1617 119.546 29.3638C119.186 29.566 118.909 29.8467 118.714 30.2061C118.52 30.558 118.378 30.9473 118.288 31.3741C118.198 31.7933 118.153 32.2575 118.153 32.7666V33.4517ZM128.603 39.0557V27.1739H131.254V28.7124H131.355C131.804 27.5669 132.743 26.9942 134.173 26.9942C134.48 26.9942 134.772 27.0204 135.049 27.0728V29.3975C134.862 29.3376 134.495 29.3077 133.949 29.3077C132.182 29.3077 131.298 30.2286 131.298 32.0703V39.0557H128.603ZM136.01 33.6426V32.6431C136.01 30.9061 136.467 29.5285 137.38 28.5103C138.293 27.4846 139.555 26.9717 141.165 26.9717C142.804 26.9717 144.07 27.4846 144.961 28.5103C145.859 29.536 146.308 30.9099 146.308 32.6319V33.6988H138.627V34.0694C138.627 34.9453 138.859 35.6791 139.323 36.2705C139.787 36.862 140.45 37.1578 141.311 37.1578C141.992 37.1578 142.524 37.008 142.905 36.7085C143.295 36.4091 143.534 36.031 143.624 35.5743H146.185C146.147 35.9112 146.061 36.2443 145.926 36.5738C145.799 36.9032 145.608 37.2326 145.354 37.562C145.099 37.8915 144.792 38.1797 144.433 38.4268C144.081 38.6739 143.635 38.876 143.096 39.0332C142.557 39.183 141.966 39.2578 141.322 39.2578C139.63 39.2578 138.32 38.76 137.391 37.7642C136.47 36.7609 136.01 35.3871 136.01 33.6426ZM138.627 31.9131H143.725V31.8907C143.725 31.0371 143.497 30.3446 143.04 29.813C142.583 29.2814 141.966 29.0157 141.187 29.0157C140.401 29.0157 139.776 29.2852 139.312 29.8243C138.855 30.3558 138.627 31.0446 138.627 31.8907V31.9131Z" fill="white"/>
</svg>
