<svg width="25" height="25" viewBox="0 0 25 25" fill="none" xmlns="http://www.w3.org/2000/svg">
<path d="M18.9531 11.7035V6.97754C18.9531 3.66854 16.2621 0.977539 12.9531 0.977539C9.64412 0.977539 6.95312 3.66854 6.95312 6.97754V11.7035C5.66482 13.1583 4.95342 15.0343 4.95312 16.9775C4.95313 21.3885 8.54213 24.9775 12.9531 24.9775C17.3641 24.9775 20.9531 21.3885 20.9531 16.9775C20.9528 15.0343 20.2414 13.1583 18.9531 11.7035V11.7035ZM13.9531 18.7935V20.9775H11.9531V18.7935C11.3699 18.588 10.8646 18.2069 10.5065 17.7028C10.1484 17.1986 9.95511 16.5959 9.95312 15.9775C9.95312 14.3235 11.2991 12.9775 12.9531 12.9775C14.6071 12.9775 15.9531 14.3235 15.9531 15.9775C15.9513 16.596 15.7581 17.1987 15.3999 17.7029C15.0418 18.2071 14.5364 18.5881 13.9531 18.7935V18.7935ZM16.9531 10.0595C15.739 9.35147 14.3586 8.97837 12.9531 8.97837C11.5476 8.97837 10.1673 9.35147 8.95312 10.0595V6.97754C8.95312 4.77154 10.7471 2.97754 12.9531 2.97754C15.1591 2.97754 16.9531 4.77154 16.9531 6.97754V10.0595V10.0595Z" fill="#3375BB"/>
</svg>
