<svg width="25" height="24" viewBox="0 0 25 24" fill="none" xmlns="http://www.w3.org/2000/svg">
<path d="M21.5938 10.3915H0.59375V8.39154H19.1798L13.1798 2.39154L14.5938 0.977539L22.3008 8.68454C22.4406 8.82439 22.5358 9.00255 22.5743 9.19651C22.6129 9.39046 22.5931 9.59149 22.5174 9.77419C22.4418 9.95689 22.3136 10.1131 22.1492 10.2229C21.9848 10.3328 21.7915 10.3915 21.5938 10.3915V10.3915ZM3.59375 14.3915H24.5938V16.3915H6.00775L12.0077 22.3915L10.5938 23.8055L2.88675 16.0985C2.74694 15.9587 2.65173 15.7805 2.61317 15.5866C2.5746 15.3926 2.5944 15.1916 2.67007 15.0089C2.74574 14.8262 2.87388 14.67 3.03829 14.5601C3.2027 14.4503 3.396 14.3916 3.59375 14.3915V14.3915Z" fill="#3375BB"/>
</svg>
