<svg width="123" height="122" viewBox="0 0 123 122" fill="none" xmlns="http://www.w3.org/2000/svg">
<g clip-path="url(#clip0_2_1560)">
<path fill-rule="evenodd" clip-rule="evenodd" d="M52.7349 76.2862C52.7349 90.5992 41.0249 102.203 26.5789 102.203C12.1329 102.203 0.422852 90.5992 0.422852 76.2862C0.422852 61.9722 12.1329 50.3682 26.5789 50.3682C41.0249 50.3682 52.7349 61.9722 52.7349 76.2862Z" fill="#ECF6FF"/>
<path d="M26.579 68.7959V121.806ZM26.579 93.3749L32.402 87.6049ZM26.799 76.0559L29.797 73.0859ZM26.579 84.7669L20.999 79.2369Z" fill="black"/>
<path d="M26.579 68.7959V121.806M26.579 93.3749L32.402 87.6049M26.799 76.0559L29.797 73.0859M26.579 84.7669L20.999 79.2369" stroke="#B6D4FF" stroke-width="0.854"/>
<path fill-rule="evenodd" clip-rule="evenodd" d="M130.667 82.9957C130.667 95.4657 122.502 102.422 111.867 102.422C101.232 102.422 93.0669 95.4647 93.0669 82.9947C93.0669 56.7397 105.067 26.4717 111.867 26.4717C118.668 26.4717 130.667 56.7397 130.667 82.9947V82.9957Z" fill="#CCE3FF"/>
<path d="M111.867 64.4453V122.002ZM112.092 94.9363L118.746 88.3053ZM111.31 82.3003L105.865 76.8733ZM112.194 73.7993L116.351 69.6563Z" fill="black"/>
<path d="M111.867 64.4453V122.002M112.092 94.9363L118.746 88.3053M111.31 82.3003L105.865 76.8733M112.194 73.7993L116.351 69.6563" stroke="#ECF6FF" stroke-width="0.854" stroke-linecap="square"/>
<path fill-rule="evenodd" clip-rule="evenodd" d="M26.0138 109.54L22.1538 130.185H26.8118L30.6718 109.54H26.0138ZM93.1398 109.54L89.2798 130.185H93.9378L97.7968 109.54H93.1398Z" fill="#CCE3FF"/>
<path fill-rule="evenodd" clip-rule="evenodd" d="M103.7 116.269L103.01 119.967H98.3521L99.0431 116.269H103.7Z" fill="#CCE3FF"/>
<path fill-rule="evenodd" clip-rule="evenodd" d="M99.0426 116.269L98.3516 119.967H19.9746L20.6656 116.269H99.0426Z" fill="#D7EBFF"/>
<path fill-rule="evenodd" clip-rule="evenodd" d="M100.301 109.54L99.6108 113.239H104.267L104.958 109.54H100.301V109.54Z" fill="#CCE3FF"/>
<path fill-rule="evenodd" clip-rule="evenodd" d="M21.9249 109.54L21.2329 113.239H99.6119L100.302 109.54H21.9249Z" fill="#D7EBFF"/>
<path fill-rule="evenodd" clip-rule="evenodd" d="M100.226 42.001C100.226 42.001 104.591 47.691 98.6641 49.201L100.226 42.001Z" fill="#19141E"/>
<path d="M92.092 61.5588L91.947 56.5418C91.947 56.5418 98.194 57.0278 99.498 56.3498C99.498 56.3498 100.489 50.2538 99.548 45.9318L94.418 41.2988L86.138 41.9088L85.198 49.4028C84.765 48.1248 80.822 46.5228 79.875 49.3898C78.655 53.0878 85.69 55.0298 85.69 55.0298L84.955 61.6198" fill="#F6B852"/>
<path d="M82.3288 41.6227L80.3018 39.5557L81.4088 38.4757L83.2598 40.3617L83.4398 40.2757L82.9628 37.6177L84.4878 37.3447L84.8698 39.4747C88.5628 37.2207 91.4798 38.9777 91.4798 38.9777C91.4798 38.9777 92.6558 34.0407 95.9138 34.0547C100.555 34.0747 101.272 41.2467 101.272 41.2467C101.272 41.2467 103.611 37.3467 104.941 37.9037C106.271 38.4617 106.308 51.4167 87.8408 45.1037C87.8408 45.1037 89.4288 48.6757 85.1978 49.4017C85.1978 49.4017 84.4598 47.8767 81.9598 47.7907C81.9598 47.7907 78.1138 46.2257 82.3298 41.6207L82.3288 41.6227Z" fill="#2F2F3D"/>
<path opacity="0.4" fill-rule="evenodd" clip-rule="evenodd" d="M91.9469 56.5431L87.8369 55.6611L91.9269 58.4261L91.9469 56.5431Z" fill="black"/>
<path fill-rule="evenodd" clip-rule="evenodd" d="M95.416 48.9938L96.836 52.4668L95.134 52.4888L95.416 48.9938ZM93.718 49.3308C93.7587 49.5553 93.7086 49.7868 93.5786 49.9744C93.4487 50.1619 93.2495 50.2901 93.025 50.3308C92.8005 50.3715 92.569 50.3214 92.3815 50.1914C92.194 50.0615 92.0657 49.8623 92.025 49.6378C92.0049 49.5267 92.0068 49.4126 92.0307 49.3022C92.0546 49.1918 92.1001 49.0872 92.1644 48.9943C92.2288 48.9014 92.3108 48.8222 92.4058 48.761C92.5008 48.6998 92.6069 48.658 92.718 48.6378C92.8292 48.6177 92.9432 48.6196 93.0537 48.6435C93.1641 48.6674 93.2687 48.7129 93.3616 48.7772C93.4544 48.8416 93.5337 48.9236 93.5949 49.0186C93.656 49.1136 93.6979 49.2197 93.718 49.3308V49.3308ZM98.185 49.3308C98.2257 49.5553 98.1756 49.7868 98.0456 49.9744C97.9157 50.1619 97.7165 50.2901 97.492 50.3308C97.2675 50.3715 97.036 50.3214 96.8485 50.1914C96.661 50.0615 96.5327 49.8623 96.492 49.6378C96.4719 49.5267 96.4738 49.4126 96.4977 49.3022C96.5216 49.1918 96.5671 49.0872 96.6314 48.9943C96.6958 48.9014 96.7778 48.8222 96.8728 48.761C96.9678 48.6998 97.0739 48.658 97.185 48.6378C97.2962 48.6177 97.4102 48.6196 97.5207 48.6435C97.6311 48.6674 97.7357 48.7129 97.8286 48.7772C97.9214 48.8416 98.0007 48.9236 98.0619 49.0186C98.123 49.1136 98.1649 49.2197 98.185 49.3308V49.3308Z" fill="#0D0B6D"/>
<path fill-rule="evenodd" clip-rule="evenodd" d="M93.2148 53.0361C93.2148 53.0361 93.7618 54.0301 94.9428 54.0061L93.2148 53.0361Z" fill="white"/>
<path d="M93.2148 53.0361C93.2148 53.0361 93.7618 54.0301 94.9428 54.0061Z" fill="black"/>
<path d="M93.2148 53.0361C93.2148 53.0361 93.7618 54.0301 94.9428 54.0061" stroke="#0D0B6D" stroke-width="0.779"/>
<path d="M80.8018 109.478C79.4628 105.079 78.5178 101.804 78.2068 100.373C76.8258 94.0142 76.8288 90.9752 76.8288 90.7432H99.6568C99.5588 92.4452 99.8438 96.9562 99.2008 103.202L113.209 165.519L114.622 165.273L115.852 170.117L100.53 173.166L98.6638 168.048L99.5788 167.889C97.5338 161.75 93.0688 148.123 88.7348 134.642C88.1854 135.554 87.6173 136.455 87.0308 137.344C78.9568 149.59 70.8978 156.676 66.4828 160.004L67.1348 160.935L62.7058 163.745L52.9658 149.925L57.2638 146.855L57.9878 147.888C63.2298 143.08 73.6998 131.774 79.8718 113.61C80.2858 112.394 80.5838 110.993 80.8018 109.478V109.478Z" fill="#19141E"/>
<path fill-rule="evenodd" clip-rule="evenodd" d="M99.5791 167.889C95.1931 154.722 79.6691 107.106 78.2081 100.373C76.8261 94.0132 76.8291 90.9752 76.8291 90.7432H96.4021L113.21 165.519L114.623 165.273L115.853 170.117L100.532 173.166L98.6651 168.048L99.5801 167.889H99.5791Z" fill="white" fill-opacity="0.1"/>
<path d="M115.228 71.7137C113.328 75.4337 106.66 87.6437 101.906 85.6967C98.346 84.2377 94.086 72.1477 94.086 72.1477L101.012 68.0377L104.124 76.3457L110.479 69.4597C110.263 68.0957 110.09 66.3127 110.521 65.6837C111.253 64.6137 114.958 61.3167 114.958 61.3167L115.633 66.9027L115.751 66.4327C115.751 66.3997 115.759 66.3672 115.774 66.3377L116.047 65.2477C115.933 65.1897 115.886 65.1077 115.935 64.9937C115.996 64.877 116.082 64.7747 116.186 64.6937L117.117 60.9727C117.117 60.9727 117.423 61.1077 117.871 61.3117C118.591 61.1627 121.201 62.9317 121.241 62.9597C121.773 63.3017 120.509 68.9597 119.482 70.0107C118.752 70.7587 116.479 71.4037 115.228 71.7137V71.7137ZM72.795 96.9427L73.22 97.7457C73.22 97.7457 73.604 98.4017 74.006 99.5477C74.407 100.693 74.241 101.394 75.11 103.193C76.097 105.235 74.332 104.393 73.699 103.502C73.204 102.806 73.26 101.865 72.619 101.444C72.405 101.786 71.915 102.274 71.641 105.221C71.592 105.749 71.832 107.464 71.832 107.464C71.837 107.977 71.904 109.048 71.317 109.212C71.172 109.252 70.983 109.092 70.983 109.092C70.983 109.092 71.039 109.763 70.44 109.896C70.205 109.948 69.737 108.501 69.737 108.501C69.737 108.501 69.665 109.236 69.218 109.318C69.091 109.341 67.598 105.148 67.598 105.148L67.688 106.095L67.886 107.065C67.886 107.065 67.87 107.587 67.45 107.679C67.282 107.716 66.962 106.845 66.662 105.821C66.195 104.226 66.204 103.028 66.342 101.837C66.507 100.398 66.434 99.9137 67.076 98.1487C67.153 97.9367 67.256 97.6947 67.371 97.4457C67.019 94.4107 66.025 85.5257 66.147 82.7997C66.295 79.4917 69.809 72.1477 69.809 72.1477L76.944 76.1257L73.011 83.2717L72.795 96.9417V96.9427ZM89.865 64.0357C85.732 63.7937 83.989 61.2327 83.591 60.5397C86.213 60.3597 86.487 60.3857 89.98 60.7457C91.396 60.8927 92.39 61.1927 93.352 61.4557C93.56 62.1607 93.856 64.2677 89.865 64.0357Z" fill="#F6B852"/>
<mask id="mask0_2_1560" style="mask-type:alpha" maskUnits="userSpaceOnUse" x="69" y="60" width="36" height="31">
<path d="M101.636 67.9504L101.66 67.9465L104.475 74.3995L100.458 76.7355L99.6179 90.8254H76.7279L76.3449 76.9295L69.1079 71.5324C69.1079 71.5324 72.5209 64.7064 78.3609 61.9894C80.2489 61.1104 81.9809 60.6964 83.5909 60.5374C83.7229 60.5244 83.6189 60.5275 83.6349 60.5905C83.6449 60.6255 83.6759 60.6785 83.7129 60.7375C83.7499 60.7975 83.7499 60.7774 83.9319 61.0444C84.1119 61.3114 84.3819 61.5774 84.7869 61.9894C85.1229 62.3314 85.5869 62.6665 86.0429 62.9205C86.5619 63.2105 87.0709 63.4025 87.3969 63.5405C87.6919 63.6635 87.9409 63.7285 88.1809 63.7855C88.8599 63.9455 89.3879 63.9954 90.4659 64.0514C90.5959 64.0584 91.3539 64.0025 91.4869 63.9765C91.6769 63.9385 91.8469 63.9045 92.0619 63.8465C92.4908 63.7043 92.8722 63.4465 93.1639 63.1015C93.3139 62.9155 93.4569 62.3055 93.4129 61.8555C93.3689 61.4055 93.1729 61.4055 93.3529 61.4535C96.5129 62.3125 99.5019 64.0815 101.249 67.2205C101.39 67.4725 101.518 67.7164 101.636 67.9504V67.9504Z" fill="#EF6E45"/>
</mask>
<g mask="url(#mask0_2_1560)">
<path d="M101.636 67.9504L101.66 67.9465L104.475 74.3995L100.458 76.7355L99.6179 90.8254H76.7279L76.3449 76.9295L69.1079 71.5324C69.1079 71.5324 72.5209 64.7064 78.3609 61.9894C80.2489 61.1104 81.9809 60.6964 83.5909 60.5374C83.7229 60.5244 83.6189 60.5275 83.6349 60.5905C83.6449 60.6255 83.6759 60.6785 83.7129 60.7375C83.7499 60.7975 83.7499 60.7774 83.9319 61.0444C84.1119 61.3114 84.3819 61.5774 84.7869 61.9894C85.1229 62.3314 85.5869 62.6665 86.0429 62.9205C86.5619 63.2105 87.0709 63.4025 87.3969 63.5405C87.6919 63.6635 87.9409 63.7285 88.1809 63.7855C88.8599 63.9455 89.3879 63.9954 90.4659 64.0514C90.5959 64.0584 91.3539 64.0025 91.4869 63.9765C91.6769 63.9385 91.8469 63.9045 92.0619 63.8465C92.4908 63.7043 92.8722 63.4465 93.1639 63.1015C93.3139 62.9155 93.4569 62.3055 93.4129 61.8555C93.3689 61.4055 93.1729 61.4055 93.3529 61.4535C96.5129 62.3125 99.5019 64.0815 101.249 67.2205C101.39 67.4725 101.518 67.7164 101.636 67.9504V67.9504Z" fill="#3375BB"/>
</g>
<g opacity="0.201">
<path d="M76.3447 76.9306L78.1807 78.1696L82.5937 73.0596" fill="black"/>
<path d="M76.3447 76.9306L78.1807 78.1696L82.5937 73.0596" stroke="black" stroke-width="0.974"/>
</g>
<path d="M118.259 67.8961L117.94 69.4571H112.761L115.204 57.0361H120.383L119.434 61.8591L118.416 61.3891L118.099 61.3021L117.849 61.3161L117.741 61.3891V61.6911L118.848 63.2741L118.001 63.6411L116.698 64.3211L116.321 64.5811L116.176 64.7151L116.056 64.8211L115.981 64.9111L115.935 64.9931L115.915 65.0991L115.935 65.1461L115.958 65.1821L115.991 65.2151L116.418 65.3651L117.392 65.0991H118.355L117.069 65.3651L116.223 65.8691L115.935 66.1391L115.772 66.3371V66.5171L116.056 66.6451L117.849 66.4401L117.255 66.7621L116.862 67.0041L116.501 67.1891L116.223 67.5471V67.7241L116.321 67.8271L116.572 67.9601H117.722L118.259 67.8971V67.8961Z" fill="#3375BB"/>
<path fill-rule="evenodd" clip-rule="evenodd" d="M112.76 69.4571H111.903L114.346 57.0361H115.203L112.76 69.4571Z" fill="#302B34"/>
<path fill-rule="evenodd" clip-rule="evenodd" d="M116.095 58.4774C116.023 58.8404 115.811 59.1054 115.62 59.0674C115.43 59.0314 115.334 58.7074 115.406 58.3444C115.477 57.9814 115.69 57.7174 115.88 57.7544C116.07 57.7914 116.166 58.1144 116.095 58.4784V58.4774Z" fill="#020101"/>
</g>
<defs>
<clipPath id="clip0_2_1560">
<rect width="121.594" height="121.594" fill="white" transform="translate(0.421875 0.305664)"/>
</clipPath>
</defs>
</svg>
