<svg width="123" height="122" viewBox="0 0 123 122" fill="none" xmlns="http://www.w3.org/2000/svg">
<g clip-path="url(#clip0_2_1616)">
<path d="M117.474 0.305664V82.8227Z" fill="black"/>
<path d="M117.474 0.305664V82.8227" stroke="#B6D4FF" stroke-width="2.77"/>
<path fill-rule="evenodd" clip-rule="evenodd" d="M170.609 82.8227H118.371V0.305664H170.609V82.8227ZM167.42 79.6307H121.56V3.49766H167.42V79.6307Z" fill="#DCEEFF"/>
<path fill-rule="evenodd" clip-rule="evenodd" d="M180.75 86.8893H116.046V82.8223H180.75V86.8893Z" fill="#CCE3FF"/>
<path fill-rule="evenodd" clip-rule="evenodd" d="M131.092 86.8893H115.064V82.8223H131.092V86.8893Z" fill="#B6D4FF"/>
<path d="M166.643 29.1514H118.37ZM166.643 54.7824H118.37Z" fill="black"/>
<path d="M166.643 29.1514H118.37M166.643 54.7824H118.37" stroke="#DCEEFF" stroke-width="2.355"/>
<path fill-rule="evenodd" clip-rule="evenodd" d="M42.9742 36.6721H28.9872L27.0972 17.7441H41.0852L42.9742 36.6721Z" fill="#DCEEFF"/>
<path fill-rule="evenodd" clip-rule="evenodd" d="M42.9742 36.6721H28.9872L27.0972 17.7441H41.0852L42.9742 36.6721Z" fill="black" stroke="#DCEEFF" stroke-width="0.623"/>
<path fill-rule="evenodd" clip-rule="evenodd" d="M43.7268 36.6721H29.4798L27.5908 17.7441H41.8398L43.7288 36.6721H43.7268Z" fill="white"/>
<path fill-rule="evenodd" clip-rule="evenodd" d="M43.7268 36.6721H29.4798L27.5908 17.7441H41.8398L43.7288 36.6721H43.7268Z" fill="black" stroke="#DCEEFF" stroke-width="0.623"/>
<path fill-rule="evenodd" clip-rule="evenodd" d="M40.9992 34.1732H31.7102L30.3202 20.2432H39.6092L40.9992 34.1732ZM6.0332 23.3732L7.3422 36.4872H24.5292L23.2202 23.3732H6.0332V23.3732Z" fill="#DCEEFF"/>
<path fill-rule="evenodd" clip-rule="evenodd" d="M6.0332 23.373L7.3422 36.487H24.5292L23.2202 23.373H6.0332Z" fill="black" stroke="#DCEEFF" stroke-width="0.623"/>
<path fill-rule="evenodd" clip-rule="evenodd" d="M6.41699 23.373L7.72699 36.487H25.233L23.924 23.373H6.41699V23.373Z" fill="white"/>
<path fill-rule="evenodd" clip-rule="evenodd" d="M6.41699 23.373L7.72699 36.487H25.233L23.924 23.373H6.41699V23.373Z" fill="black" stroke="#DCEEFF" stroke-width="0.623"/>
<path fill-rule="evenodd" clip-rule="evenodd" d="M10.1079 25.9463L10.9039 33.9153H21.5419L20.7469 25.9463H10.1079ZM64.1339 31.5863C64.1344 32.0675 63.9439 32.5292 63.6041 32.8699C63.2643 33.2106 62.8031 33.4025 62.3219 33.4033H46.0179V29.7683H62.3219C63.3219 29.7683 64.1339 30.5823 64.1339 31.5853V31.5863Z" fill="#CCE3FF"/>
<path fill-rule="evenodd" clip-rule="evenodd" d="M53.169 31.5862C53.1693 31.7242 53.1424 31.8608 53.0898 31.9884C53.0372 32.116 52.96 32.2319 52.8626 32.3296C52.7651 32.4273 52.6494 32.5048 52.522 32.5578C52.3946 32.6107 52.258 32.6381 52.12 32.6382H46.063C46.0514 32.6382 46.0402 32.6336 46.0319 32.6253C46.0237 32.6171 46.019 32.6059 46.019 32.5942V30.5772C46.019 30.5532 46.039 30.5332 46.063 30.5332H52.12C52.7 30.5332 53.169 31.0042 53.169 31.5862V31.5862Z" fill="#DCEEFF"/>
<path fill-rule="evenodd" clip-rule="evenodd" d="M66.4098 33.4043V37.0393H48.6128C48.1315 37.0385 47.6702 36.8467 47.3303 36.506C46.9903 36.1653 46.7995 35.7036 46.7998 35.2223C46.7998 34.2183 47.6118 33.4043 48.6128 33.4043H66.4078H66.4098Z" fill="#CCE3FF"/>
<path fill-rule="evenodd" clip-rule="evenodd" d="M66.4098 34.1787V36.2637H59.0918C58.9551 36.2636 58.8197 36.2365 58.6934 36.184C58.5672 36.1315 58.4525 36.0546 58.356 35.9577C58.2595 35.8608 58.183 35.7459 58.131 35.6194C58.079 35.4929 58.0524 35.3575 58.0528 35.2207C58.0525 35.084 58.0792 34.9485 58.1314 34.8221C58.1835 34.6957 58.2601 34.5808 58.3567 34.484C58.4533 34.3872 58.568 34.3105 58.6943 34.2581C58.8207 34.2057 58.9561 34.1787 59.0928 34.1787H66.4088H66.4098ZM72.1878 39.4537H10.8418V36.8687H72.1878V39.4537Z" fill="#DCEEFF"/>
<path fill-rule="evenodd" clip-rule="evenodd" d="M10.843 39.4541H0.75V36.8691H10.842V39.4541H10.843Z" fill="#CCE3FF"/>
<path fill-rule="evenodd" clip-rule="evenodd" d="M57.2358 39.4541L52.4458 46.9941V39.4541H57.2358Z" fill="#B6D4FF"/>
<path fill-rule="evenodd" clip-rule="evenodd" d="M59.8878 39.4541L55.0978 46.9941H52.4458L57.2358 39.4541H59.8878Z" fill="#CCE3FF"/>
<path fill-rule="evenodd" clip-rule="evenodd" d="M22.1001 39.4541L17.3091 46.9941V39.4541H22.0991H22.1001Z" fill="#B6D4FF"/>
<path fill-rule="evenodd" clip-rule="evenodd" d="M24.7511 39.4541L19.9611 46.9941H17.3091L22.0991 39.4541H24.7511Z" fill="#CCE3FF"/>
<path fill-rule="evenodd" clip-rule="evenodd" d="M95.2033 45.5685C95.2033 47.9645 93.6633 49.9065 91.7633 49.9065C89.8623 49.9065 88.3213 47.9645 88.3213 45.5685C88.3213 43.1725 89.8613 41.2305 91.7623 41.2305C93.6623 41.2305 95.2033 43.1725 95.2033 45.5685Z" fill="#19141E"/>
<path d="M87.0604 62.7533L86.9164 57.7703C86.9164 57.7703 92.9584 58.2523 94.2504 57.5803C94.2504 57.5803 95.8304 49.4233 93.9464 44.9073L93.9084 44.7313L81.1584 43.2363L80.4444 50.5683C80.0144 49.2983 76.4704 47.8593 75.5444 49.6783C73.5364 53.6163 80.7144 56.2683 80.7144 56.2683L79.9864 62.8133" fill="#F6B852"/>
<path opacity="0.399" fill-rule="evenodd" clip-rule="evenodd" d="M86.9173 57.7705L82.8433 56.8955L86.8973 59.6405L86.9173 57.7705Z" fill="black"/>
<path fill-rule="evenodd" clip-rule="evenodd" d="M90.1731 50.4759L91.5811 53.9259L89.8941 53.9479L90.1731 50.4769V50.4759ZM88.6711 50.6089C88.6946 50.7205 88.6955 50.8357 88.6737 50.9476C88.6519 51.0596 88.6079 51.166 88.5442 51.2606C88.4806 51.3553 88.3986 51.4362 88.3032 51.4986C88.2077 51.561 88.1007 51.6036 87.9885 51.624C87.8762 51.6443 87.7611 51.6419 87.6498 51.617C87.5385 51.592 87.4333 51.545 87.3405 51.4787C87.2477 51.4124 87.1692 51.3282 87.1095 51.231C87.0498 51.1338 87.0102 51.0256 86.9931 50.9129C86.9597 50.6933 87.0133 50.4695 87.1423 50.2888C87.2714 50.1081 87.4659 49.9849 87.6843 49.9453C87.9028 49.9057 88.1281 49.9529 88.3124 50.0768C88.4967 50.2007 88.6253 50.3916 88.6711 50.6089ZM93.4021 50.6089C93.4355 50.8284 93.3819 51.0523 93.2529 51.2329C93.1238 51.4136 92.9293 51.5368 92.7109 51.5764C92.4924 51.616 92.267 51.5688 92.0828 51.4449C91.8985 51.321 91.7699 51.1301 91.7241 50.9129C91.6907 50.6933 91.7443 50.4695 91.8733 50.2888C92.0024 50.1081 92.1969 49.9849 92.4153 49.9453C92.6338 49.9057 92.8591 49.9529 93.0434 50.0768C93.2277 50.2007 93.3563 50.3916 93.4021 50.6089Z" fill="#0D0B6D"/>
<path d="M81.3902 51.8204C80.1812 49.7464 78.4332 49.1144 77.6472 48.9294C77.3342 48.0224 77.0962 46.9694 76.9282 45.8514C76.4782 42.8575 78.6502 40.1264 80.4052 39.3414C82.1812 38.5474 85.2432 37.4475 89.7252 38.9414C92.7382 39.9454 94.6652 37.5404 96.4382 38.5674C99.4682 40.3234 96.6492 48.0104 88.9662 46.0574C83.4702 44.6604 83.3292 45.0104 83.2822 46.0264C83.1302 49.3084 82.6192 51.2394 81.3902 51.8204V51.8204Z" fill="#2F2F3D"/>
<path fill-rule="evenodd" clip-rule="evenodd" d="M89.7633 50.6503C89.7633 51.7303 88.8903 52.6053 87.8133 52.6053C87.5568 52.6052 87.3028 52.5545 87.0658 52.4562C86.8288 52.3578 86.6136 52.2138 86.4323 52.0322C86.251 51.8507 86.1073 51.6352 86.0093 51.3981C85.9114 51.161 85.8611 50.9069 85.8613 50.6503C85.8613 49.5703 86.7353 48.6953 87.8123 48.6953C88.8903 48.6953 89.7633 49.5703 89.7633 50.6503V50.6503ZM94.6773 50.6503C94.6773 51.7303 93.8033 52.6053 92.7253 52.6053C92.2075 52.6045 91.7112 52.3981 91.3456 52.0315C90.9799 51.6649 90.7748 51.1681 90.7753 50.6503C90.7753 49.5703 91.6483 48.6953 92.7253 48.6953C93.8033 48.6953 94.6773 49.5703 94.6773 50.6503Z" fill="black" stroke="#252535" stroke-width="0.669"/>
<path d="M90.616 50.7404H89.772ZM85.862 50.6504H81.043Z" fill="black"/>
<path d="M90.616 50.7404H89.772M85.862 50.6504H81.043" stroke="#252535" stroke-width="0.669"/>
<path d="M92.8802 169.314L92.7602 173.107H85.8142L85.9362 169.303C85.5443 169.146 85.2072 168.878 84.9666 168.531C84.7261 168.184 84.5927 167.774 84.5832 167.352L83.4652 110.546L71.3862 167.896C71.304 168.285 71.119 168.644 70.8503 168.937C70.5817 169.23 70.2394 169.445 69.8592 169.56L69.4042 173.107H62.1232L62.7492 169.191C62.4382 168.952 62.1967 168.634 62.0496 168.27C61.9025 167.906 61.855 167.509 61.9122 167.121L73.0332 91.1111H83.0832V91.0811H95.2542L94.5242 167.246C94.5187 167.724 94.3543 168.187 94.0568 168.561C93.7594 168.936 93.3458 169.201 92.8812 169.314H92.8802Z" fill="#2F2F3D"/>
<path opacity="0.198" fill-rule="evenodd" clip-rule="evenodd" d="M83.4043 111.446L85.5363 101.992L83.9323 130.655L83.4043 111.446V111.446Z" fill="black"/>
<mask id="mask0_2_1616" style="mask-type:alpha" maskUnits="userSpaceOnUse" x="14" y="80" width="105" height="80">
<path d="M114.219 101.728L33.8224 80.8806C32.2117 80.4629 30.5011 80.7021 29.0668 81.5457C27.6325 82.3892 26.5921 83.7679 26.1744 85.3786L14.3264 131.073C14.1195 131.87 14.0718 132.7 14.186 133.516C14.3001 134.332 14.5738 135.118 14.9915 135.828C15.4092 136.538 15.9627 137.159 16.6203 137.655C17.2779 138.151 18.0269 138.513 18.8244 138.72L99.2214 159.567C100.019 159.774 100.849 159.821 101.665 159.707C102.481 159.593 103.267 159.32 103.977 158.902C104.687 158.484 105.308 157.931 105.805 157.273C106.301 156.615 106.663 155.866 106.869 155.069L118.718 109.376C118.925 108.578 118.973 107.748 118.859 106.931C118.744 106.115 118.471 105.33 118.053 104.62C117.635 103.91 117.082 103.289 116.424 102.792C115.766 102.296 115.017 101.934 114.219 101.728V101.728Z" fill="white"/>
</mask>
<g mask="url(#mask0_2_1616)">
<path d="M114.219 101.728L33.8224 80.8806C32.2117 80.4629 30.5011 80.7021 29.0668 81.5457C27.6325 82.3892 26.5921 83.7679 26.1744 85.3786L14.3264 131.073C14.1195 131.87 14.0718 132.7 14.186 133.516C14.3001 134.332 14.5738 135.118 14.9915 135.828C15.4092 136.538 15.9627 137.159 16.6203 137.655C17.2779 138.151 18.0269 138.513 18.8244 138.72L99.2214 159.567C100.019 159.774 100.849 159.821 101.665 159.707C102.481 159.593 103.267 159.32 103.977 158.902C104.687 158.484 105.308 157.931 105.805 157.273C106.301 156.615 106.663 155.866 106.869 155.069L118.718 109.376C118.925 108.578 118.973 107.748 118.859 106.931C118.744 106.115 118.471 105.33 118.053 104.62C117.635 103.91 117.082 103.289 116.424 102.792C115.766 102.296 115.017 101.934 114.219 101.728V101.728Z" fill="#1B323C"/>
<g opacity="0.198">
<path opacity="0.198" d="M102.615 219.089C129.767 226.13 157.486 209.826 164.527 182.674C171.567 155.521 155.263 127.803 128.111 120.762C100.959 113.721 73.2396 130.025 66.1986 157.178C59.1586 184.33 75.4616 212.049 102.615 219.089Z" fill="url(#paint0_linear_2_1616)"/>
<path opacity="0.198" d="M99.6146 230.658C133.156 239.356 167.397 219.216 176.095 185.675C184.792 152.133 164.652 117.892 131.111 109.195C97.5686 100.498 63.3276 120.638 54.6306 154.179C45.9336 187.72 66.0736 221.961 99.6146 230.658V230.658Z" fill="url(#paint1_linear_2_1616)"/>
<path opacity="0.198" d="M96.6155 242.225C136.546 252.579 177.309 228.603 187.663 188.673C198.016 148.743 174.04 107.98 134.11 97.6261C94.1795 87.2721 53.4165 111.248 43.0625 151.178C32.7085 191.108 56.6855 231.871 96.6155 242.225V242.225Z" fill="url(#paint2_linear_2_1616)"/>
</g>
<g opacity="0.198">
<path opacity="0.198" d="M-5.56755 243.506C27.9725 252.203 62.2145 232.063 70.9115 198.522C79.6085 164.98 59.4685 130.739 25.9275 122.042C-7.61355 113.345 -41.8545 133.485 -50.5525 167.026C-59.2495 200.567 -39.1095 234.808 -5.56755 243.506V243.506Z" fill="url(#paint3_linear_2_1616)"/>
<path opacity="0.198" d="M-8.56754 255.074C31.3625 265.428 72.1254 241.451 82.4794 201.521C92.8334 161.591 68.8575 120.828 28.9275 110.474C-11.0025 100.121 -51.7665 124.097 -62.1195 164.027C-72.4735 203.957 -48.4975 244.72 -8.56754 255.074V255.074Z" fill="url(#paint4_linear_2_1616)"/>
</g>
</g>
<path d="M22.9635 128.087C22.935 128.08 22.9082 128.067 22.8849 128.049C22.8615 128.031 22.842 128.009 22.8275 127.984C22.8119 127.958 22.8017 127.929 22.7978 127.898C22.7938 127.868 22.7961 127.838 22.8045 127.809C22.8111 127.78 22.8237 127.752 22.8417 127.729C22.8596 127.705 22.8824 127.686 22.9085 127.672C22.9336 127.656 22.9617 127.646 22.991 127.642C23.0202 127.637 23.0501 127.639 23.0785 127.648C23.1385 127.663 23.1835 127.698 23.2145 127.751C23.2303 127.776 23.2405 127.804 23.2447 127.833C23.2488 127.862 23.2467 127.892 23.2385 127.921C23.2313 127.95 23.2183 127.978 23.2003 128.003C23.1823 128.027 23.1596 128.048 23.1335 128.064C23.1083 128.079 23.0802 128.089 23.0509 128.093C23.0217 128.097 22.9919 128.095 22.9635 128.087ZM24.5735 128.505C24.5448 128.498 24.5178 128.485 24.4942 128.467C24.4706 128.449 24.451 128.426 24.4365 128.401C24.421 128.374 24.4111 128.345 24.4073 128.315C24.4035 128.285 24.406 128.255 24.4145 128.226C24.4211 128.197 24.4336 128.17 24.4514 128.146C24.4691 128.122 24.4917 128.103 24.5175 128.089C24.5428 128.073 24.5709 128.063 24.6001 128.059C24.6293 128.055 24.659 128.057 24.6875 128.065C24.7475 128.081 24.7925 128.115 24.8245 128.169C24.8565 128.22 24.8645 128.277 24.8485 128.338C24.8414 128.367 24.8285 128.395 24.8104 128.42C24.7924 128.444 24.7696 128.465 24.7435 128.481C24.7182 128.496 24.6902 128.506 24.6609 128.51C24.6317 128.514 24.602 128.512 24.5735 128.505V128.505ZM26.1835 128.922C26.1544 128.914 26.1272 128.901 26.1033 128.883C26.0794 128.865 26.0594 128.842 26.0445 128.816C26.0295 128.79 26.02 128.761 26.0164 128.731C26.0128 128.702 26.0152 128.671 26.0235 128.643C26.0303 128.614 26.043 128.587 26.0609 128.563C26.0789 128.54 26.1016 128.521 26.1275 128.507C26.1526 128.491 26.1807 128.481 26.21 128.477C26.2392 128.472 26.2691 128.474 26.2975 128.483C26.3575 128.498 26.4025 128.533 26.4335 128.586C26.4493 128.611 26.4595 128.639 26.4637 128.668C26.4678 128.697 26.4657 128.727 26.4575 128.756C26.4502 128.785 26.4372 128.813 26.4192 128.837C26.4012 128.861 26.3785 128.882 26.3525 128.898C26.3274 128.913 26.2993 128.923 26.27 128.928C26.2408 128.932 26.211 128.93 26.1825 128.922H26.1835ZM27.7935 129.34C27.7648 129.333 27.7378 129.32 27.7142 129.302C27.6906 129.284 27.671 129.261 27.6565 129.236C27.6409 129.21 27.6308 129.181 27.6269 129.15C27.6229 129.12 27.6252 129.09 27.6335 129.061C27.6401 129.032 27.6527 129.004 27.6707 128.981C27.6886 128.957 27.7114 128.938 27.7375 128.924C27.7628 128.908 27.7909 128.898 27.8201 128.894C27.8493 128.89 27.879 128.892 27.9075 128.9C27.9665 128.916 28.0125 128.95 28.0435 129.003C28.0593 129.028 28.0695 129.056 28.0737 129.085C28.0778 129.114 28.0757 129.144 28.0675 129.173C28.0603 129.202 28.0473 129.23 28.0293 129.255C28.0113 129.279 27.9886 129.3 27.9625 129.316C27.9372 129.331 27.9092 129.341 27.8799 129.345C27.8507 129.349 27.821 129.347 27.7925 129.34H27.7935ZM37.9405 130.112C38.2015 130.18 38.3625 130.337 38.4235 130.583C38.4705 130.773 38.4565 131.013 38.3815 131.303C38.3105 131.578 38.2105 131.794 38.0815 131.953C37.8965 132.18 37.6685 132.259 37.3995 132.189C37.2872 132.164 37.1841 132.108 37.1026 132.027C37.0211 131.946 36.9645 131.844 36.9395 131.732C36.8865 131.53 36.8985 131.281 36.9755 130.985C37.0355 130.755 37.1155 130.566 37.2175 130.416C37.4075 130.138 37.6485 130.037 37.9395 130.112H37.9405ZM37.4585 131.957C37.5214 131.974 37.5877 131.974 37.6508 131.958C37.714 131.942 37.7718 131.909 37.8185 131.864C37.9275 131.767 38.0225 131.56 38.1055 131.242C38.1655 131.012 38.1855 130.816 38.1675 130.653C38.1495 130.49 38.0585 130.387 37.8955 130.345C37.7455 130.306 37.6185 130.348 37.5125 130.472C37.4075 130.594 37.3185 130.792 37.2475 131.066C37.1987 131.232 37.1778 131.406 37.1855 131.58C37.2035 131.789 37.2955 131.915 37.4585 131.957V131.957ZM38.7535 131.96C38.7245 132.102 38.7535 132.213 38.8405 132.293C38.9111 132.354 39.0008 132.389 39.0945 132.393C39.1881 132.396 39.28 132.366 39.3545 132.31C39.4665 132.231 39.5805 132.041 39.6965 131.74C39.6256 131.81 39.5349 131.857 39.4365 131.875C39.3424 131.889 39.2464 131.883 39.1545 131.859C39.0679 131.84 38.9862 131.804 38.9146 131.752C38.8431 131.7 38.7834 131.633 38.7395 131.557C38.6573 131.398 38.64 131.214 38.6915 131.044C38.7345 130.867 38.8382 130.711 38.9845 130.603C39.1325 130.493 39.3165 130.466 39.5345 130.523C39.8295 130.599 39.9985 130.785 40.0415 131.079C40.0635 131.271 40.0468 131.465 39.9925 131.651C39.9385 131.876 39.8428 132.089 39.7105 132.28C39.5045 132.566 39.2545 132.671 38.9605 132.595C38.7615 132.544 38.6255 132.453 38.5495 132.323C38.512 132.258 38.488 132.187 38.4789 132.113C38.4698 132.039 38.4758 131.964 38.4965 131.893L38.7535 131.96V131.96ZM39.2465 131.645C39.347 131.671 39.4535 131.661 39.5475 131.617C39.6485 131.572 39.7205 131.467 39.7635 131.301C39.8025 131.152 39.7935 131.032 39.7365 130.94C39.7085 130.893 39.6714 130.853 39.6274 130.821C39.5834 130.79 39.5334 130.767 39.4805 130.756C39.4253 130.739 39.3671 130.734 39.31 130.743C39.2529 130.751 39.1984 130.772 39.1505 130.805C39.0502 130.879 38.9811 130.987 38.9565 131.11C38.9211 131.221 38.9261 131.341 38.9705 131.449C39.0145 131.543 39.1065 131.608 39.2465 131.645V131.645ZM41.1595 130.947C41.4205 131.015 41.5815 131.172 41.6425 131.418C41.6895 131.608 41.6755 131.848 41.6005 132.138C41.5295 132.412 41.4305 132.629 41.3005 132.788C41.1155 133.015 40.8885 133.094 40.6195 133.024C40.5073 132.999 40.4043 132.943 40.3229 132.862C40.2414 132.781 40.1847 132.679 40.1595 132.567C40.1055 132.365 40.1175 132.116 40.1945 131.82C40.2545 131.59 40.3345 131.4 40.4365 131.251C40.6265 130.973 40.8685 130.872 41.1595 130.947V130.947ZM40.6775 132.792C40.7405 132.809 40.8069 132.809 40.8701 132.793C40.9332 132.776 40.991 132.743 41.0375 132.698C41.1465 132.602 41.2415 132.395 41.3245 132.076C41.3845 131.847 41.4045 131.651 41.3865 131.488C41.3685 131.325 41.2785 131.222 41.1155 131.18C41.0463 131.159 40.9725 131.16 40.9039 131.183C40.8353 131.205 40.7752 131.248 40.7315 131.306C40.6265 131.429 40.5385 131.627 40.4675 131.901C40.4183 132.067 40.397 132.241 40.4045 132.415C40.4225 132.624 40.5145 132.749 40.6775 132.792V132.792ZM41.9725 132.795C41.9445 132.937 41.9725 133.048 42.0595 133.128C42.1301 133.189 42.2198 133.224 42.3135 133.228C42.4071 133.231 42.499 133.201 42.5735 133.145C42.6855 133.065 42.7995 132.875 42.9155 132.575C42.8449 132.645 42.7546 132.692 42.6565 132.71C42.5624 132.724 42.4664 132.718 42.3745 132.694C42.2877 132.675 42.2057 132.639 42.134 132.587C42.0623 132.534 42.0025 132.468 41.9585 132.391C41.8761 132.233 41.8589 132.049 41.9105 131.879C41.9536 131.702 42.0577 131.545 42.2045 131.438C42.3525 131.328 42.5355 131.301 42.7545 131.358C43.0485 131.434 43.2175 131.619 43.2605 131.914C43.2825 132.106 43.2658 132.3 43.2115 132.486C43.1573 132.711 43.0616 132.924 42.9295 133.115C42.7235 133.401 42.4735 133.506 42.1795 133.43C41.9815 133.378 41.8445 133.288 41.7695 133.158C41.732 133.093 41.708 133.022 41.6989 132.948C41.6898 132.874 41.6958 132.799 41.7165 132.728L41.9725 132.795V132.795ZM42.4655 132.479C42.5659 132.505 42.6724 132.496 42.7665 132.452C42.8685 132.407 42.9405 132.301 42.9835 132.136C43.0215 131.987 43.0135 131.867 42.9565 131.775C42.9284 131.728 42.8911 131.688 42.847 131.656C42.8028 131.624 42.7526 131.602 42.6995 131.591C42.6444 131.573 42.5862 131.569 42.5291 131.577C42.472 131.585 42.4174 131.606 42.3695 131.639C42.2694 131.713 42.2003 131.821 42.1755 131.944C42.1401 132.055 42.1451 132.175 42.1895 132.284C42.2335 132.378 42.3255 132.443 42.4655 132.479V132.479ZM32.7685 98.5216L32.2435 100.546L32.0385 100.493L32.4585 98.8726L31.3105 100.03L31.2085 100.003L30.7645 98.4426L30.3465 100.055L30.1415 100.001L30.6665 97.9766L30.8425 98.0226L31.3325 99.7506L32.5925 98.4756L32.7685 98.5216V98.5216ZM33.7895 99.3116C33.9885 99.3626 34.1275 99.4516 34.2075 99.5796C34.2875 99.7056 34.3035 99.8656 34.2525 100.061L34.0085 101.004L33.8115 100.953L33.8725 100.716C33.8033 100.784 33.7152 100.83 33.6195 100.848C33.5081 100.868 33.3934 100.863 33.2845 100.832C33.1373 100.802 33.005 100.721 32.9105 100.605C32.8719 100.554 32.8456 100.495 32.834 100.433C32.8224 100.37 32.8256 100.306 32.8435 100.245C32.8568 100.185 32.8836 100.129 32.9217 100.081C32.9598 100.033 33.0083 99.9949 33.0635 99.9686C33.1785 99.9136 33.3385 99.9136 33.5425 99.9666L34.0255 100.092L34.0495 99.9986C34.0835 99.8686 34.0725 99.7586 34.0165 99.6726C33.9615 99.5836 33.8635 99.5216 33.7225 99.4846C33.5384 99.4363 33.3432 99.4537 33.1705 99.5336L33.1175 99.3556C33.2169 99.3088 33.3247 99.2822 33.4345 99.2776C33.5515 99.2686 33.6705 99.2806 33.7895 99.3116V99.3116ZM33.3585 100.678C33.4735 100.708 33.5795 100.708 33.6765 100.677C33.7753 100.643 33.861 100.579 33.9215 100.494L33.9855 100.245L33.5085 100.121C33.2485 100.054 33.0945 100.111 33.0485 100.291C33.0363 100.331 33.0341 100.374 33.0421 100.415C33.0501 100.457 33.0681 100.496 33.0945 100.529C33.1643 100.605 33.2568 100.657 33.3585 100.678V100.678ZM34.9695 101.269C34.8488 101.238 34.7335 101.189 34.6275 101.124C34.5389 101.071 34.4615 101.002 34.3995 100.92L34.5345 100.782C34.5845 100.849 34.6545 100.911 34.7415 100.969C34.8305 101.025 34.9265 101.066 35.0315 101.093C35.1695 101.129 35.2775 101.134 35.3535 101.109C35.3903 101.098 35.4236 101.077 35.45 101.049C35.4763 101.021 35.4948 100.987 35.5035 100.95C35.5111 100.925 35.5131 100.9 35.5093 100.875C35.5054 100.85 35.496 100.826 35.4815 100.806C35.4507 100.76 35.4096 100.723 35.3615 100.697C35.2938 100.657 35.2236 100.622 35.1515 100.591C35.0557 100.546 34.9622 100.497 34.8715 100.444C34.804 100.4 34.7486 100.339 34.7105 100.269C34.6726 100.187 34.6669 100.094 34.6945 100.009C34.7096 99.9473 34.7393 99.8907 34.7811 99.8434C34.8229 99.7962 34.8755 99.7599 34.9345 99.7376C35.0615 99.6846 35.2195 99.6816 35.4085 99.7306C35.5065 99.7566 35.6015 99.7956 35.6925 99.8476C35.7845 99.8976 35.8565 99.9526 35.9095 100.012L35.7775 100.154C35.6681 100.03 35.523 99.9445 35.3625 99.9076C35.2603 99.8737 35.1503 99.871 35.0465 99.8996C35.011 99.9113 34.979 99.9318 34.9537 99.9593C34.9283 99.9867 34.9103 100.02 34.9015 100.057C34.8937 100.082 34.8913 100.109 34.8946 100.135C34.8979 100.161 34.9067 100.187 34.9205 100.21C34.9519 100.256 34.9933 100.295 35.0415 100.324C35.0935 100.354 35.1665 100.391 35.2605 100.434C35.3755 100.488 35.4675 100.537 35.5345 100.579C35.6015 100.621 35.6545 100.677 35.6915 100.746C35.7299 100.824 35.7363 100.914 35.7095 100.998C35.6945 101.061 35.6637 101.119 35.62 101.167C35.5763 101.215 35.521 101.251 35.4595 101.272C35.3295 101.321 35.1665 101.32 34.9695 101.269V101.269ZM36.8055 101.63C36.7539 101.656 36.6973 101.671 36.6395 101.674C36.5778 101.676 36.5161 101.669 36.4565 101.654C36.3956 101.642 36.3378 101.618 36.2863 101.583C36.2347 101.549 36.1906 101.504 36.1565 101.453C36.1279 101.398 36.1105 101.338 36.1053 101.277C36.1002 101.216 36.1074 101.154 36.1265 101.096L36.3645 100.176L36.0925 100.106L36.1375 99.9326L36.4095 100.003L36.4955 99.6706L36.7015 99.7236L36.6145 100.056L37.0775 100.176L37.0325 100.35L36.5695 100.23L36.3345 101.138C36.3105 101.229 36.3145 101.304 36.3465 101.363C36.3815 101.422 36.4405 101.462 36.5265 101.484C36.608 101.506 36.6946 101.498 36.7715 101.464L36.8055 101.63ZM38.6065 101.453L37.3345 101.123C37.3187 101.196 37.3178 101.272 37.3319 101.346C37.346 101.42 37.3747 101.491 37.4165 101.554C37.5071 101.682 37.6427 101.773 37.7965 101.807C37.8851 101.831 37.9776 101.837 38.0685 101.825C38.1564 101.811 38.2401 101.778 38.3135 101.728L38.3935 101.891C38.3042 101.955 38.2005 101.995 38.0915 102.01C37.9749 102.026 37.8562 102.018 37.7425 101.988C37.5973 101.952 37.4633 101.881 37.3525 101.781C37.2517 101.685 37.179 101.564 37.1425 101.431C37.1058 101.291 37.1068 101.144 37.1455 101.006C37.1793 100.866 37.2478 100.737 37.3445 100.631C37.4375 100.531 37.5562 100.459 37.6875 100.423C37.8189 100.387 37.9577 100.388 38.0885 100.426C38.2222 100.458 38.3445 100.526 38.4425 100.623C38.5373 100.717 38.6038 100.836 38.6345 100.966C38.668 101.105 38.6653 101.251 38.6265 101.39L38.6065 101.453V101.453ZM38.0435 100.603C37.9072 100.563 37.761 100.58 37.6365 100.648C37.5117 100.718 37.4181 100.832 37.3745 100.969L38.4525 101.249C38.4805 101.108 38.4533 100.961 38.3765 100.84C38.3396 100.78 38.2911 100.728 38.2339 100.687C38.1767 100.647 38.112 100.618 38.0435 100.603V100.603ZM39.3605 101.086C39.4308 100.999 39.5268 100.938 39.6345 100.91C39.7591 100.883 39.8884 100.888 40.0105 100.925L39.9585 101.124L39.9105 101.108C39.8419 101.086 39.7695 101.079 39.6981 101.088C39.6268 101.097 39.558 101.12 39.4965 101.158C39.3805 101.233 39.2995 101.359 39.2535 101.537L39.0525 102.312L38.8465 102.259L39.2415 100.737L39.4375 100.788L39.3605 101.086V101.086ZM40.5975 102.728C40.4557 102.693 40.3249 102.623 40.2175 102.525C40.1181 102.43 40.0468 102.31 40.0115 102.178C39.975 102.037 39.9761 101.89 40.0145 101.75C40.0484 101.609 40.1192 101.48 40.2195 101.377C40.3148 101.278 40.4356 101.208 40.5685 101.174C40.7101 101.14 40.8581 101.142 40.9985 101.181C41.1205 101.21 41.2337 101.268 41.3285 101.35C41.4181 101.424 41.4835 101.524 41.5165 101.636L41.3365 101.7C41.308 101.615 41.2568 101.54 41.1885 101.483C41.1128 101.419 41.023 101.375 40.9266 101.353C40.8303 101.331 40.7301 101.333 40.6345 101.358C40.5348 101.383 40.4445 101.437 40.3745 101.513C40.3005 101.595 40.2482 101.695 40.2225 101.804C40.1924 101.912 40.1897 102.025 40.2145 102.135C40.2407 102.236 40.2948 102.329 40.3708 102.401C40.4468 102.474 40.5416 102.524 40.6445 102.546C40.7313 102.569 40.8222 102.572 40.9105 102.556C40.9978 102.538 41.0787 102.498 41.1445 102.438L41.2715 102.582C41.1872 102.663 41.0814 102.719 40.9665 102.743C40.8437 102.766 40.7171 102.761 40.5965 102.728H40.5975ZM42.5295 101.578C42.7285 101.629 42.8675 101.719 42.9475 101.847C43.0275 101.972 43.0435 102.133 42.9925 102.327L42.7485 103.27L42.5515 103.219L42.6125 102.982C42.5433 103.05 42.4552 103.096 42.3595 103.114C42.2481 103.134 42.1334 103.129 42.0245 103.098C41.8776 103.067 41.7458 102.987 41.6515 102.871C41.6126 102.82 41.5862 102.761 41.5744 102.699C41.5625 102.636 41.5657 102.572 41.5835 102.511C41.5968 102.451 41.6236 102.395 41.6617 102.347C41.6998 102.299 41.7483 102.261 41.8035 102.235C41.9185 102.181 42.0785 102.18 42.2835 102.233L42.7655 102.358L42.7895 102.266C42.8235 102.134 42.8125 102.026 42.7565 101.939C42.7015 101.851 42.6035 101.788 42.4625 101.752C42.2786 101.703 42.0833 101.72 41.9105 101.8L41.8575 101.623C41.9569 101.575 42.0646 101.549 42.1745 101.544C42.2915 101.536 42.4105 101.547 42.5295 101.578V101.578ZM42.0985 102.944C42.2135 102.974 42.3195 102.974 42.4165 102.943C42.5155 102.909 42.6013 102.845 42.6615 102.76L42.7255 102.511L42.2485 102.388C41.9885 102.32 41.8345 102.377 41.7885 102.558C41.7764 102.598 41.7743 102.641 41.7823 102.682C41.7903 102.724 41.8082 102.763 41.8345 102.796C41.9044 102.872 41.9969 102.924 42.0985 102.944V102.944ZM43.8195 102.243C43.8892 102.156 43.9854 102.094 44.0935 102.067C44.218 102.04 44.3473 102.044 44.4695 102.081L44.4175 102.28L44.3695 102.265C44.301 102.243 44.2285 102.236 44.1571 102.244C44.0856 102.253 44.0169 102.277 43.9555 102.315C43.8395 102.39 43.7585 102.516 43.7125 102.693L43.5115 103.468L43.3055 103.415L43.7005 101.894L43.8965 101.945L43.8195 102.243V102.243ZM46.3745 101.92L45.8175 104.066L45.6215 104.015L45.6995 103.714C45.6151 103.798 45.5088 103.857 45.3925 103.885C45.2731 103.912 45.1486 103.91 45.0305 103.877C44.8946 103.843 44.7698 103.775 44.6685 103.679C44.5709 103.584 44.5016 103.464 44.4685 103.333C44.4332 103.192 44.435 103.045 44.4735 102.906C44.5076 102.765 44.5776 102.635 44.6765 102.529C44.7725 102.429 44.8865 102.362 45.0185 102.328C45.1439 102.295 45.2753 102.293 45.4015 102.322C45.5278 102.351 45.6451 102.41 45.7435 102.495C45.8314 102.571 45.8964 102.67 45.9315 102.781L46.1685 101.867L46.3745 101.92V101.92ZM45.0945 103.7C45.1934 103.73 45.2988 103.731 45.3984 103.703C45.4979 103.675 45.5875 103.62 45.6565 103.543C45.7325 103.461 45.7863 103.361 45.8125 103.253C45.8424 103.145 45.8441 103.032 45.8175 102.924C45.7948 102.824 45.7433 102.733 45.6695 102.663C45.5956 102.59 45.5033 102.538 45.4025 102.514C45.3004 102.485 45.1926 102.485 45.0905 102.514C44.9924 102.54 44.9037 102.594 44.8345 102.669C44.7601 102.751 44.7075 102.851 44.6815 102.96C44.6517 103.067 44.649 103.179 44.6735 103.288C44.6978 103.387 44.749 103.479 44.8215 103.552C44.8985 103.623 44.9924 103.674 45.0945 103.7V103.7Z" fill="white"/>
<path d="M37.2062 88.75L40.3312 89.56L38.8662 95.21L35.7412 94.4L37.2062 88.75Z" fill="#FF5F00"/>
<path d="M36.6734 91.6275C36.8137 91.0846 37.0745 90.5804 37.4365 90.1522C37.7985 89.7241 38.2524 89.383 38.7644 89.1545C38.2676 88.4941 37.5614 88.0217 36.7614 87.8145C34.7874 87.3035 32.7744 88.4965 32.2594 90.4825C31.7444 92.4695 32.9244 94.4905 34.8984 95.0025C35.6981 95.21 36.5445 95.1402 37.2994 94.8045C36.962 94.3565 36.7305 93.838 36.622 93.2878C36.5136 92.7376 36.5312 92.1699 36.6734 91.6275V91.6275Z" fill="#EB001B"/>
<path d="M43.8146 93.4791C43.2996 95.4651 41.2856 96.6591 39.3116 96.1461C38.5116 95.9388 37.8055 95.4664 37.3086 94.8061C37.8219 94.5796 38.277 94.2394 38.6394 93.8111C39.0018 93.3828 39.2621 92.8777 39.4006 92.3341C39.5416 91.7914 39.5584 91.224 39.4498 90.674C39.3413 90.1239 39.1101 89.6054 38.7736 89.1571C39.5288 88.8211 40.3756 88.7513 41.1756 88.9591C43.1496 89.4711 44.3276 91.5021 43.8156 93.4791H43.8146Z" fill="#F79E1B"/>
<mask id="mask1_2_1616" style="mask-type:alpha" maskUnits="userSpaceOnUse" x="16" y="89" width="104" height="75">
<path d="M103.563 89.4571L21.918 104.699C21.108 104.85 20.3356 105.159 19.6451 105.609C18.9546 106.059 18.3594 106.64 17.8935 107.319C17.4276 107.999 17.1002 108.764 16.9299 109.57C16.7596 110.376 16.7498 111.208 16.901 112.018L25.564 158.421C25.7152 159.231 26.0245 160.003 26.4741 160.694C26.9238 161.384 27.505 161.979 28.1846 162.445C28.8643 162.911 29.629 163.238 30.4351 163.408C31.2413 163.579 32.0731 163.588 32.883 163.437L114.528 148.195C115.338 148.044 116.11 147.735 116.8 147.285C117.491 146.836 118.086 146.255 118.552 145.575C119.018 144.896 119.345 144.131 119.515 143.325C119.685 142.519 119.695 141.687 119.544 140.877L110.882 94.4741C110.731 93.6641 110.422 92.8918 109.972 92.2013C109.523 91.5107 108.941 90.9155 108.262 90.4497C107.582 89.9838 106.817 89.6563 106.011 89.486C105.205 89.3157 104.373 89.3059 103.563 89.4571V89.4571Z" fill="white"/>
</mask>
<g mask="url(#mask1_2_1616)">
<path d="M103.563 89.4571L21.918 104.699C21.108 104.85 20.3356 105.159 19.6451 105.609C18.9546 106.059 18.3594 106.64 17.8935 107.319C17.4276 107.999 17.1002 108.764 16.9299 109.57C16.7596 110.376 16.7498 111.208 16.901 112.018L25.564 158.421C25.7152 159.231 26.0245 160.003 26.4741 160.694C26.9238 161.384 27.505 161.979 28.1846 162.445C28.8643 162.911 29.629 163.238 30.4351 163.408C31.2413 163.579 32.0731 163.588 32.883 163.437L114.528 148.195C115.338 148.044 116.11 147.735 116.8 147.285C117.491 146.836 118.086 146.255 118.552 145.575C119.018 144.896 119.345 144.131 119.515 143.325C119.685 142.519 119.695 141.687 119.544 140.877L110.882 94.4741C110.731 93.6641 110.422 92.8918 109.972 92.2013C109.523 91.5107 108.941 90.9155 108.262 90.4497C107.582 89.9838 106.817 89.6563 106.011 89.486C105.205 89.3157 104.373 89.3059 103.563 89.4571V89.4571Z" fill="#3EA4DD"/>
</g>
<path d="M33.1482 117.797L31.7212 118.063L31.5612 112.266L32.9892 112L33.1492 117.797H33.1482ZM29.4702 112.657L31.0062 112.37L29.7862 118.425L28.3002 118.702L26.1472 114.042C25.2502 113.695 24.5352 113.677 24.5352 113.677L24.5432 113.576L26.7922 113.157C27.4112 113.041 27.5632 113.537 27.5632 113.537L28.5162 115.98L28.8332 116.783L29.4702 112.657ZM41.7432 116.192L41.4202 115.387L39.6062 115.726L39.4652 116.618L37.9782 116.895L39.1332 111.287C39.1332 111.287 39.1832 110.843 39.7132 110.744L40.8602 110.53L43.0542 115.948L41.7442 116.192H41.7432ZM39.8022 114.494L40.9732 114.275L40.1582 112.247L39.8022 114.494ZM37.2912 112.598C36.6162 112.366 35.2112 112.544 35.3302 113.18C35.4492 113.817 37.4652 113.581 37.7392 115.045C38.0022 116.455 36.6292 117.247 35.6562 117.429C34.6822 117.611 33.9862 117.412 33.9862 117.412L33.9622 116.108C34.6362 116.481 36.4322 116.287 36.2892 115.523C36.1472 114.759 34.1692 115.11 33.8992 113.655C33.6092 112.109 35.2322 111.477 35.9392 111.345C36.3798 111.274 36.8291 111.276 37.2692 111.351L37.2912 112.598V112.598Z" fill="white"/>
<path d="M32.1203 152.053C32.0913 152.058 32.0615 152.058 32.0326 152.052C32.0037 152.046 31.9764 152.034 31.9523 152.017C31.9272 152 31.9058 151.978 31.8894 151.952C31.8731 151.926 31.8622 151.898 31.8573 151.868C31.851 151.839 31.8508 151.809 31.8569 151.78C31.8629 151.751 31.875 151.724 31.8923 151.7C31.9088 151.675 31.93 151.654 31.9547 151.638C31.9795 151.622 32.0072 151.611 32.0363 151.606C32.0653 151.6 32.0951 151.6 32.124 151.606C32.1529 151.613 32.1802 151.625 32.2043 151.642C32.229 151.658 32.25 151.679 32.266 151.703C32.282 151.728 32.2927 151.756 32.2973 151.785C32.3034 151.814 32.3036 151.845 32.2978 151.875C32.2919 151.905 32.2802 151.933 32.2633 151.959C32.2469 151.983 32.2257 152.004 32.2009 152.02C32.1762 152.036 32.1484 152.047 32.1193 152.053H32.1203ZM33.7543 151.748C33.7253 151.753 33.6955 151.753 33.6666 151.747C33.6377 151.741 33.6104 151.729 33.5863 151.712C33.5614 151.694 33.5402 151.672 33.524 151.647C33.5079 151.621 33.4971 151.592 33.4923 151.563C33.486 151.534 33.4858 151.504 33.4919 151.475C33.4979 151.446 33.51 151.419 33.5273 151.395C33.5437 151.37 33.565 151.349 33.5897 151.333C33.6144 151.317 33.6422 151.306 33.6713 151.301C33.7001 151.295 33.7298 151.295 33.7585 151.302C33.7872 151.308 33.8143 151.32 33.8383 151.337C33.8631 151.353 33.8843 151.373 33.9005 151.398C33.9167 151.423 33.9276 151.451 33.9323 151.48C33.9384 151.509 33.9386 151.54 33.9328 151.57C33.9269 151.6 33.9152 151.628 33.8983 151.654C33.8819 151.678 33.8606 151.699 33.8359 151.715C33.8111 151.731 33.7834 151.742 33.7543 151.748V151.748ZM35.3893 151.442C35.3599 151.447 35.3297 151.447 35.3004 151.44C35.2712 151.434 35.2435 151.422 35.2191 151.405C35.1946 151.387 35.1739 151.365 35.1581 151.34C35.1424 151.315 35.1319 151.286 35.1273 151.257C35.121 151.228 35.1209 151.198 35.1269 151.169C35.1329 151.141 35.145 151.113 35.1623 151.09C35.1784 151.065 35.1995 151.044 35.2241 151.028C35.2487 151.012 35.2763 151.001 35.3053 150.996C35.3343 150.99 35.3641 150.99 35.393 150.996C35.4219 151.003 35.4492 151.015 35.4733 151.032C35.4981 151.048 35.5193 151.068 35.5355 151.093C35.5517 151.118 35.5626 151.145 35.5673 151.175C35.5733 151.204 35.5733 151.235 35.5673 151.265C35.5613 151.295 35.5494 151.323 35.5323 151.349C35.5161 151.373 35.4951 151.394 35.4705 151.41C35.4459 151.426 35.4183 151.437 35.3893 151.442V151.442ZM37.0233 151.137C36.9939 151.142 36.9637 151.142 36.9344 151.135C36.9052 151.129 36.8775 151.117 36.8531 151.1C36.8286 151.082 36.8079 151.06 36.7921 151.035C36.7764 151.01 36.7659 150.981 36.7613 150.952C36.755 150.923 36.7549 150.893 36.7609 150.864C36.7669 150.836 36.779 150.808 36.7963 150.785C36.8124 150.76 36.8336 150.739 36.8584 150.722C36.8832 150.706 36.9111 150.695 36.9403 150.691C37.0003 150.68 37.0573 150.691 37.1083 150.726C37.1331 150.742 37.1541 150.763 37.1702 150.788C37.1862 150.812 37.1968 150.84 37.2013 150.87C37.2074 150.899 37.2076 150.93 37.2018 150.96C37.1959 150.99 37.1842 151.018 37.1673 151.044C37.151 151.068 37.1298 151.089 37.105 151.105C37.0802 151.121 37.0524 151.132 37.0233 151.137V151.137ZM46.5403 147.531C46.8063 147.481 47.0183 147.555 47.1773 147.752C47.3013 147.904 47.3903 148.127 47.4453 148.421C47.4973 148.701 47.4983 148.939 47.4503 149.137C47.3783 149.422 47.2053 149.589 46.9323 149.641C46.8203 149.666 46.7034 149.659 46.5953 149.62C46.4872 149.582 46.3924 149.513 46.3223 149.422C46.1883 149.262 46.0923 149.032 46.0363 148.73C45.994 148.527 45.9868 148.318 46.0153 148.113C46.0693 147.78 46.2453 147.586 46.5403 147.531V147.531ZM46.8873 149.406C46.9516 149.394 47.0118 149.366 47.0619 149.325C47.1121 149.283 47.1505 149.229 47.1733 149.168C47.2303 149.035 47.2293 148.807 47.1693 148.483C47.1387 148.286 47.073 148.097 46.9753 147.925C46.8903 147.784 46.7653 147.729 46.5993 147.76C46.528 147.771 46.4617 147.803 46.4093 147.853C46.3568 147.903 46.3206 147.967 46.3053 148.038C46.2623 148.193 46.2663 148.41 46.3183 148.688C46.3583 148.898 46.4113 149.062 46.4803 149.18C46.5853 149.362 46.7203 149.437 46.8873 149.406ZM48.0613 148.859C48.0953 149 48.1683 149.088 48.2813 149.123C48.3714 149.148 48.4675 149.142 48.5536 149.106C48.6398 149.069 48.7106 149.003 48.7543 148.921C48.8213 148.801 48.8443 148.581 48.8213 148.259C48.7871 148.352 48.7254 148.434 48.6443 148.492C48.5649 148.544 48.4753 148.58 48.3813 148.597C48.2951 148.617 48.2055 148.619 48.1184 148.602C48.0314 148.586 47.9488 148.551 47.8763 148.5C47.7351 148.391 47.6418 148.232 47.6163 148.056C47.58 147.877 47.6076 147.692 47.6943 147.532C47.7823 147.369 47.9363 147.267 48.1583 147.226C48.4583 147.17 48.6883 147.266 48.8533 147.515C48.9433 147.651 49.0103 147.831 49.0513 148.053C49.0983 148.305 49.1023 148.534 49.0633 148.743C48.9983 149.089 48.8163 149.29 48.5173 149.346C48.3163 149.384 48.1543 149.36 48.0303 149.274C47.9691 149.231 47.9172 149.177 47.8777 149.114C47.8381 149.051 47.8118 148.98 47.8003 148.907L48.0603 148.859H48.0613ZM48.3743 148.364C48.4762 148.345 48.5682 148.29 48.6343 148.211C48.7073 148.128 48.7273 148.002 48.6963 147.833C48.6683 147.682 48.6083 147.577 48.5183 147.518C48.4733 147.487 48.4226 147.467 48.3693 147.457C48.316 147.447 48.2612 147.448 48.2083 147.46C48.1512 147.468 48.0966 147.488 48.0485 147.52C48.0005 147.552 47.9601 147.594 47.9303 147.644C47.8706 147.753 47.8539 147.881 47.8833 148.003C47.8984 148.118 47.9541 148.225 48.0403 148.304C48.1203 148.371 48.2313 148.39 48.3743 148.364V148.364ZM49.8093 146.921C50.0753 146.871 50.2873 146.945 50.4473 147.141C50.5703 147.293 50.6593 147.517 50.7143 147.811C50.7663 148.09 50.7683 148.329 50.7193 148.527C50.6473 148.811 50.4753 148.979 50.2013 149.03C50.0894 149.055 49.9726 149.048 49.8646 149.009C49.7565 148.971 49.6617 148.902 49.5913 148.812C49.4573 148.652 49.3623 148.421 49.3063 148.12C49.2636 147.916 49.2562 147.707 49.2843 147.502C49.3393 147.17 49.5143 146.976 49.8093 146.921V146.921ZM50.1563 148.795C50.2207 148.784 50.281 148.756 50.3314 148.714C50.3817 148.673 50.4203 148.619 50.4433 148.558C50.5003 148.424 50.4983 148.196 50.4383 147.873C50.4075 147.676 50.3418 147.487 50.2443 147.314C50.1593 147.174 50.0343 147.119 49.8683 147.15C49.7163 147.178 49.6183 147.271 49.5743 147.427C49.5313 147.583 49.5353 147.8 49.5873 148.078C49.6273 148.287 49.6803 148.451 49.7493 148.57C49.8543 148.751 49.9893 148.826 50.1563 148.795V148.795ZM51.3303 148.248C51.3643 148.389 51.4383 148.477 51.5503 148.513C51.6405 148.538 51.7368 148.532 51.823 148.495C51.9092 148.458 51.9799 148.393 52.0233 148.31C52.0903 148.191 52.1133 147.97 52.0913 147.649C52.0571 147.742 51.995 147.823 51.9133 147.881C51.834 147.933 51.7449 147.969 51.6513 147.987C51.565 148.007 51.4753 148.009 51.3883 147.992C51.3012 147.975 51.2188 147.94 51.1463 147.889C51.0047 147.78 50.911 147.621 50.8853 147.445C50.8493 147.266 50.8773 147.081 50.9643 146.922C51.0513 146.759 51.2063 146.657 51.4273 146.616C51.7273 146.56 51.9583 146.656 52.1223 146.904C52.2133 147.041 52.2793 147.22 52.3213 147.443C52.3683 147.694 52.3713 147.924 52.3323 148.132C52.2673 148.479 52.0853 148.68 51.7863 148.736C51.5863 148.773 51.4233 148.749 51.2993 148.664C51.2381 148.621 51.1862 148.567 51.1467 148.504C51.1071 148.441 51.0808 148.37 51.0693 148.297L51.3303 148.248V148.248ZM51.6433 147.754C51.745 147.734 51.8368 147.68 51.9033 147.601C51.9763 147.517 51.9963 147.391 51.9653 147.223C51.9373 147.072 51.8783 146.967 51.7873 146.907C51.7421 146.877 51.6914 146.856 51.6381 146.847C51.5849 146.837 51.5302 146.838 51.4773 146.85C51.4203 146.858 51.3659 146.878 51.3179 146.91C51.27 146.942 51.2298 146.984 51.2003 147.034C51.1403 147.143 51.1232 147.271 51.1523 147.393C51.168 147.508 51.224 147.615 51.3103 147.694C51.3903 147.76 51.5003 147.78 51.6433 147.754V147.754ZM27.5963 123.426C27.4041 123.464 27.2051 123.453 27.0183 123.394C26.8391 123.335 26.6795 123.229 26.5573 123.085C26.4352 122.941 26.3552 122.767 26.3263 122.581C26.2885 122.394 26.3016 122.2 26.3643 122.021C26.4283 121.843 26.5343 121.693 26.6813 121.572C26.8293 121.452 27.0053 121.372 27.2083 121.334C27.3613 121.306 27.5073 121.305 27.6463 121.332C27.7843 121.358 27.9083 121.412 28.0163 121.493L27.9043 121.657C27.8101 121.591 27.7034 121.546 27.5909 121.523C27.4783 121.501 27.3624 121.502 27.2503 121.527C27.0952 121.554 26.9498 121.62 26.8283 121.721C26.7117 121.817 26.623 121.943 26.5713 122.085C26.521 122.231 26.5106 122.389 26.5413 122.541C26.5652 122.692 26.6304 122.834 26.7297 122.95C26.8291 123.066 26.9587 123.153 27.1043 123.201C27.2513 123.251 27.4063 123.26 27.5683 123.23C27.682 123.212 27.7907 123.171 27.8875 123.109C27.9844 123.047 28.0671 122.966 28.1303 122.87L28.2943 122.982C28.2207 123.098 28.1216 123.197 28.0043 123.27C27.8843 123.345 27.7483 123.397 27.5963 123.426V123.426ZM28.7343 121.909C28.7611 121.801 28.8221 121.704 28.9083 121.634C29.0097 121.557 29.1286 121.506 29.2543 121.487L29.2923 121.69L29.2423 121.696C29.1709 121.705 29.1024 121.73 29.0414 121.768C28.9803 121.806 28.9281 121.857 28.8883 121.917C28.8143 122.034 28.7943 122.183 28.8283 122.363L28.9753 123.15L28.7663 123.189L28.4783 121.644L28.6783 121.607L28.7343 121.909ZM31.1213 122.017L29.8283 122.258C29.8453 122.331 29.877 122.401 29.9213 122.462C29.9656 122.523 30.0217 122.575 30.0863 122.614C30.2163 122.691 30.3663 122.714 30.5363 122.682C30.6262 122.669 30.712 122.637 30.7874 122.586C30.8628 122.536 30.9257 122.469 30.9713 122.391L31.1143 122.504C31.0603 122.6 30.9838 122.681 30.8913 122.741C30.7923 122.804 30.6814 122.848 30.5653 122.868C30.4189 122.898 30.2671 122.891 30.1243 122.847C29.993 122.803 29.8761 122.724 29.7863 122.619C29.694 122.508 29.6326 122.375 29.6083 122.233C29.5796 122.092 29.5868 121.946 29.6293 121.809C29.6714 121.679 29.7485 121.564 29.8521 121.475C29.9557 121.387 30.0818 121.329 30.2163 121.308C30.351 121.28 30.4908 121.289 30.6203 121.336C30.7461 121.38 30.8566 121.46 30.9393 121.565C31.0288 121.677 31.0881 121.81 31.1113 121.952L31.1213 122.017V122.017ZM30.2503 121.487C30.1807 121.497 30.114 121.522 30.0539 121.559C29.9938 121.595 29.9416 121.644 29.9003 121.701C29.8173 121.817 29.7815 121.961 29.8003 122.103L30.8953 121.898C30.8608 121.758 30.7742 121.637 30.6533 121.56C30.5943 121.521 30.5283 121.495 30.4591 121.483C30.3899 121.47 30.319 121.472 30.2503 121.487V121.487ZM32.6833 120.203L33.0903 122.382L32.8903 122.419L32.8333 122.114C32.7925 122.225 32.7215 122.324 32.6283 122.398C32.5321 122.474 32.4183 122.524 32.2973 122.545C32.1597 122.572 32.0174 122.563 31.8843 122.519C31.7559 122.475 31.6423 122.396 31.5563 122.291C31.4651 122.178 31.4045 122.044 31.3803 121.902C31.3513 121.76 31.3596 121.612 31.4043 121.475C31.4462 121.346 31.5239 121.232 31.6283 121.147C31.7361 121.057 31.8654 120.998 32.0033 120.974C32.1205 120.95 32.2417 120.955 32.3563 120.99C32.4682 121.022 32.5692 121.084 32.6483 121.17L32.4743 120.242L32.6833 120.203V120.203ZM32.2803 122.357C32.3823 122.339 32.4778 122.295 32.5573 122.229C32.6354 122.162 32.6927 122.074 32.7223 121.976C32.7565 121.87 32.7627 121.757 32.7403 121.648C32.722 121.538 32.6755 121.434 32.6053 121.348C32.5397 121.269 32.454 121.209 32.3572 121.174C32.2603 121.14 32.1561 121.133 32.0553 121.153C31.9513 121.17 31.8539 121.216 31.7733 121.284C31.6958 121.35 31.6383 121.436 31.6073 121.534C31.5752 121.64 31.57 121.753 31.5923 121.862C31.6106 121.971 31.656 122.075 31.7243 122.163C31.7887 122.242 31.8733 122.303 31.9693 122.339C32.0695 122.371 32.1761 122.377 32.2793 122.357H32.2803ZM33.3823 120.729L33.5913 120.69L33.8793 122.234L33.6703 122.273L33.3823 120.729ZM33.4253 120.371C33.4053 120.375 33.3846 120.375 33.3645 120.371C33.3444 120.367 33.3253 120.359 33.3083 120.348C33.2917 120.337 33.2774 120.323 33.2664 120.306C33.2553 120.29 33.2477 120.271 33.244 120.252C33.2403 120.232 33.2405 120.212 33.2447 120.193C33.2488 120.173 33.2569 120.155 33.2683 120.139C33.2798 120.122 33.2947 120.107 33.3121 120.096C33.3295 120.085 33.349 120.078 33.3693 120.075C33.3894 120.07 33.41 120.07 33.4301 120.074C33.4502 120.078 33.4693 120.086 33.4863 120.098C33.5027 120.108 33.5168 120.121 33.5277 120.137C33.5385 120.153 33.5459 120.171 33.5493 120.19C33.5535 120.21 33.5536 120.23 33.5495 120.251C33.5453 120.271 33.5371 120.29 33.5253 120.307C33.5139 120.324 33.4991 120.338 33.4819 120.349C33.4647 120.36 33.4455 120.367 33.4253 120.371V120.371ZM35.2553 121.88C35.2194 121.925 35.1745 121.962 35.1233 121.99C35.0686 122.018 35.0099 122.038 34.9493 122.05C34.8043 122.077 34.6853 122.059 34.5933 121.995C34.544 121.958 34.5026 121.911 34.4716 121.858C34.4407 121.805 34.4209 121.746 34.4133 121.685L34.2393 120.751L33.9633 120.803L33.9303 120.626L34.2063 120.575L34.1433 120.237L34.3513 120.198L34.4143 120.536L34.8843 120.448L34.9173 120.624L34.4473 120.712L34.6193 121.634C34.6373 121.726 34.6723 121.793 34.7263 121.833C34.7578 121.852 34.7929 121.865 34.8295 121.871C34.8661 121.876 34.9034 121.875 34.9393 121.866C34.9815 121.858 35.022 121.844 35.0593 121.823C35.0958 121.803 35.128 121.776 35.1543 121.744L35.2543 121.88H35.2553ZM37.3613 121.603C37.1691 121.641 36.9701 121.63 36.7833 121.571C36.6043 121.511 36.4533 121.411 36.3293 121.27C36.2061 121.123 36.1239 120.946 36.0913 120.758C36.0535 120.571 36.0666 120.377 36.1293 120.198C36.1933 120.02 36.2993 119.87 36.4463 119.749C36.5943 119.629 36.7703 119.549 36.9733 119.511C37.1176 119.482 37.2658 119.482 37.4103 119.509C37.5503 119.535 37.6733 119.589 37.7803 119.67L37.6693 119.834C37.5751 119.768 37.4684 119.723 37.3559 119.7C37.2433 119.678 37.1274 119.679 37.0153 119.704C36.8602 119.731 36.7148 119.797 36.5933 119.898C36.4763 119.994 36.3872 120.119 36.3353 120.262C36.285 120.408 36.2746 120.566 36.3053 120.718C36.3297 120.869 36.3952 121.01 36.4947 121.127C36.5941 121.243 36.7238 121.33 36.8693 121.378C37.0163 121.428 37.1713 121.438 37.3333 121.407C37.447 121.389 37.5557 121.348 37.6525 121.286C37.7493 121.224 37.832 121.143 37.8953 121.047L38.0593 121.159C37.9857 121.275 37.8866 121.374 37.7693 121.447C37.6493 121.522 37.5133 121.574 37.3613 121.603V121.603ZM38.7583 119.713C38.9603 119.675 39.1243 119.697 39.2513 119.779C39.3773 119.859 39.4593 119.998 39.4953 120.195L39.6753 121.153L39.4753 121.19L39.4293 120.949C39.3958 121.04 39.3355 121.119 39.2563 121.176C39.1643 121.242 39.0581 121.285 38.9463 121.304C38.8006 121.339 38.6472 121.322 38.5123 121.257C38.4558 121.227 38.4069 121.185 38.3697 121.134C38.3326 121.082 38.3081 121.022 38.2983 120.96C38.2851 120.9 38.2856 120.838 38.2998 120.778C38.314 120.719 38.3415 120.663 38.3803 120.616C38.4603 120.518 38.6053 120.45 38.8123 120.411L39.3023 120.319L39.2853 120.225C39.2603 120.092 39.2053 119.998 39.1173 119.944C39.0303 119.887 38.9143 119.872 38.7723 119.899C38.5848 119.932 38.4149 120.031 38.2923 120.177L38.1693 120.039C38.2393 119.954 38.3253 119.884 38.4223 119.833C38.5253 119.776 38.6373 119.736 38.7583 119.713V119.713ZM38.9483 121.133C39.0548 121.116 39.1543 121.069 39.2353 120.998C39.3102 120.925 39.3606 120.83 39.3793 120.728L39.3323 120.475L38.8473 120.565C38.5833 120.615 38.4683 120.731 38.5023 120.915C38.5084 120.956 38.5246 120.996 38.5495 121.03C38.5745 121.064 38.6073 121.092 38.6453 121.111C38.741 121.15 38.8469 121.158 38.9473 121.133H38.9483ZM40.2083 119.767C40.2353 119.659 40.2963 119.562 40.3823 119.492C40.4837 119.415 40.6026 119.364 40.7283 119.345L40.7663 119.548L40.7163 119.554C40.6449 119.563 40.5764 119.588 40.5154 119.626C40.4543 119.664 40.4021 119.715 40.3623 119.775C40.2883 119.892 40.2683 120.041 40.3023 120.221L40.4493 121.008L40.2403 121.047L39.9523 119.502L40.1523 119.465L40.2083 119.767V119.767ZM42.3853 118.392L42.7913 120.571L42.5913 120.608L42.5353 120.303C42.4945 120.414 42.4235 120.513 42.3303 120.587C42.2338 120.663 42.1196 120.713 41.9983 120.734C41.8611 120.761 41.7191 120.752 41.5863 120.708C41.4579 120.664 41.3443 120.585 41.2583 120.48C41.1671 120.367 41.1065 120.233 41.0823 120.091C41.0533 119.949 41.0616 119.801 41.1063 119.664C41.1482 119.535 41.2259 119.421 41.3303 119.336C41.438 119.246 41.5673 119.187 41.7053 119.163C41.8225 119.138 41.9438 119.144 42.0583 119.179C42.1699 119.211 42.2704 119.273 42.3493 119.359L42.1763 118.431L42.3853 118.392V118.392ZM41.9813 120.546C42.0893 120.526 42.1813 120.483 42.2583 120.418C42.3367 120.351 42.3943 120.263 42.4243 120.165C42.4584 120.059 42.4646 119.946 42.4423 119.837C42.424 119.727 42.3775 119.623 42.3073 119.537C42.2417 119.458 42.156 119.398 42.0592 119.363C41.9623 119.329 41.8581 119.322 41.7573 119.342C41.6529 119.359 41.5552 119.404 41.4743 119.473C41.3968 119.539 41.3393 119.625 41.3083 119.723C41.2765 119.829 41.2717 119.942 41.2943 120.051C41.3126 120.16 41.358 120.264 41.4263 120.352C41.4943 120.434 41.5763 120.493 41.6713 120.528C41.7714 120.56 41.8781 120.566 41.9813 120.546V120.546Z" fill="white"/>
<path fill-rule="evenodd" clip-rule="evenodd" d="M111.89 63.6151L111.973 65.0571L115.801 67.4051L115.992 67.3051C116.446 67.0711 116.923 66.8251 117.45 66.4011C118.333 65.6941 118.861 65.0551 119.378 64.4311C119.694 64.0471 120.006 63.6701 120.393 63.2841C121.096 62.5841 121.901 61.9561 122.581 61.4251C123.171 60.9651 123.666 60.5781 123.916 60.2831C123.991 60.1951 124.029 60.0812 124.021 59.9658C124.013 59.8505 123.96 59.7429 123.873 59.6661L123.771 59.5741C123.689 59.5025 123.583 59.4632 123.474 59.4636C123.365 59.464 123.26 59.504 123.178 59.5761L119.502 62.1431L119.38 61.9521L123.614 57.9941C123.652 57.9491 123.68 57.8971 123.697 57.8411C123.714 57.7852 123.719 57.7264 123.713 57.6682C123.707 57.61 123.69 57.5535 123.662 57.5022C123.634 57.4508 123.596 57.4056 123.55 57.3691L123.331 57.1911C123.242 57.1197 123.129 57.0851 123.015 57.0942C122.901 57.1033 122.795 57.1555 122.718 57.2401L118.236 61.1761L118.092 61.0381C118.06 61.0201 118.816 60.1711 119.732 59.1431C120.79 57.9541 122.061 56.5261 122.574 55.8671C122.611 55.8199 122.638 55.7655 122.654 55.7074C122.669 55.6493 122.672 55.5887 122.663 55.5293C122.654 55.4699 122.632 55.4131 122.6 55.3623C122.568 55.3115 122.526 55.2679 122.476 55.2341L122.186 55.0341C122.096 54.9722 121.987 54.9452 121.879 54.9581C121.771 54.971 121.671 55.0229 121.598 55.1041L116.783 60.1521L116.675 60.0211C116.631 59.9981 117.647 58.5661 118.589 57.2391C119.108 56.5071 119.604 55.8071 119.888 55.3921C119.923 55.341 119.947 55.283 119.958 55.2219C119.969 55.1609 119.968 55.0982 119.953 55.0379C119.938 54.9777 119.91 54.9212 119.872 54.8723C119.834 54.8234 119.786 54.7831 119.731 54.7541L119.511 54.6341C119.416 54.5835 119.307 54.5685 119.202 54.5918C119.097 54.615 119.004 54.6751 118.939 54.7611L114.84 60.0481C114.84 60.0481 114.597 60.3051 114.233 60.5031C114.002 60.1901 113.948 59.5871 113.893 58.9771C113.846 58.4511 113.799 57.9201 113.636 57.5691C113.215 56.6591 111.313 55.3411 112.109 57.2511C112.705 58.6841 112.432 59.7621 112.203 60.6681C112.124 60.9506 112.064 61.2379 112.022 61.5281C111.891 62.6111 111.89 63.6151 111.89 63.6151V63.6151ZM83.8072 61.7351C81.7632 61.7431 78.9312 61.7481 78.9312 61.7481C78.9312 61.7481 80.4672 65.0481 85.1132 65.3191C89.7592 65.5911 88.4221 62.5891 88.4221 62.5891C88.4221 62.5891 85.8522 61.7291 83.8072 61.7361V61.7351Z" fill="#F6B852"/>
<path d="M78.9844 93.9534L80.9064 95.5734C80.9064 95.5734 80.2714 100.508 82.4764 100.483C82.4764 100.483 82.3974 101.265 82.8324 101.388C83.2674 101.512 84.6724 99.7994 84.6724 99.7994C84.6724 99.7994 86.3974 99.3584 86.8984 97.7944C87.3984 96.2314 87.8754 92.4654 87.3944 92.1254C86.9144 91.7854 81.8924 91.1074 81.8924 91.1074C81.8924 91.1074 79.7744 91.1314 78.9844 93.9534V93.9534Z" fill="#F6B852"/>
<path d="M118.54 50.6373L115.094 51.1757C114.569 51.2577 114.21 51.7498 114.292 52.2747L116 63.21C116.082 63.735 116.574 64.094 117.099 64.012L120.545 63.4736C121.07 63.3916 121.429 62.8995 121.347 62.3746L119.639 51.4393C119.557 50.9143 119.065 50.5553 118.54 50.6373Z" fill="black"/>
<path d="M117.87 50.7493L113.591 51.4179C113.066 51.4999 112.707 51.9919 112.789 52.5169L114.497 63.4522C114.579 63.9771 115.071 64.3362 115.596 64.2542L119.875 63.5856C120.4 63.5036 120.759 63.0116 120.677 62.4867L118.969 51.5513C118.887 51.0264 118.395 50.6673 117.87 50.7493Z" fill="#3375BB"/>
<mask id="mask2_2_1616" style="mask-type:alpha" maskUnits="userSpaceOnUse" x="57" y="61" width="62" height="35">
<path d="M81.5093 91.2598L82.9253 88.2008L79.4853 95.6288C79.4853 95.6288 75.6413 93.4038 70.7853 92.9988C61.4443 92.9988 58.0013 89.6648 57.7753 85.4638C57.5353 80.9988 61.4443 74.6258 61.4443 74.6258C61.4443 74.6258 67.5643 65.5758 73.2343 62.9318C74.3973 62.3888 77.2193 61.9358 78.9293 61.7488C79.4543 61.6918 79.1403 61.8958 79.3203 62.2418C79.5083 62.6018 80.0803 63.1378 80.4763 63.5368C81.3013 64.3698 82.9253 64.9998 83.7973 65.1288C84.4623 65.2268 85.7473 65.3788 86.3653 65.2968C86.9833 65.2138 87.6553 64.9348 87.8353 64.7688C88.0153 64.6028 88.2823 64.3958 88.4203 64.0768C88.5593 63.7568 88.5523 63.8488 88.5523 63.5538C88.5523 63.2598 88.5363 63.3038 88.5083 63.1638C88.4783 63.0228 88.4783 62.9388 88.4623 62.8658C88.3873 62.5458 88.4203 62.5888 88.4203 62.5888C91.7683 63.5988 93.4633 63.9738 94.6833 65.4438L104.003 71.9798L110.379 63.6638L118.607 69.1848C118.607 69.1848 111.322 82.7498 106.042 84.2498C101.789 85.4578 97.4823 81.6998 95.9663 80.1938L97.7663 89.3248C98.0543 90.9018 96.6733 91.4988 95.4423 91.4428L81.5093 91.2598V91.2598Z" fill="#3375BB"/>
</mask>
<g mask="url(#mask2_2_1616)">
<path d="M81.5093 91.2598L82.9253 88.2008L79.4853 95.6288C79.4853 95.6288 75.6413 93.4038 70.7853 92.9988C61.4443 92.9988 58.0013 89.6648 57.7753 85.4638C57.5353 80.9988 61.4443 74.6258 61.4443 74.6258C61.4443 74.6258 67.5643 65.5758 73.2343 62.9318C74.3973 62.3888 77.2193 61.9358 78.9293 61.7488C79.4543 61.6918 79.1403 61.8958 79.3203 62.2418C79.5083 62.6018 80.0803 63.1378 80.4763 63.5368C81.3013 64.3698 82.9253 64.9998 83.7973 65.1288C84.4623 65.2268 85.7473 65.3788 86.3653 65.2968C86.9833 65.2138 87.6553 64.9348 87.8353 64.7688C88.0153 64.6028 88.2823 64.3958 88.4203 64.0768C88.5593 63.7568 88.5523 63.8488 88.5523 63.5538C88.5523 63.2598 88.5363 63.3038 88.5083 63.1638C88.4783 63.0228 88.4783 62.9388 88.4623 62.8658C88.3873 62.5458 88.4203 62.5888 88.4203 62.5888C91.7683 63.5988 93.4633 63.9738 94.6833 65.4438L104.003 71.9798L110.379 63.6638L118.607 69.1848C118.607 69.1848 111.322 82.7498 106.042 84.2498C101.789 85.4578 97.4823 81.6998 95.9663 80.1938L97.7663 89.3248C98.0543 90.9018 96.6733 91.4988 95.4423 91.4428L81.5093 91.2598V91.2598Z" fill="#3375BB"/>
</g>
<path opacity="0.201" fill-rule="evenodd" clip-rule="evenodd" d="M95.9382 80.1979L94.8242 75.7979L97.8322 81.8109L95.9382 80.1979V80.1979Z" fill="black"/>
<g opacity="0.201">
<path d="M82.3183 88.9517L69.5703 82.2747L76.2673 73.5127" fill="black"/>
<path d="M82.3183 88.9517L69.5703 82.2747L76.2673 73.5127" stroke="black" stroke-width="0.836"/>
</g>
<path d="M88.27 54.7382C88.162 55.0252 88.159 55.3482 88.26 55.6382C88.361 55.9272 88.559 56.1582 88.81 56.2812C88.9319 56.3415 89.0658 56.3737 89.2018 56.3754C89.3379 56.3772 89.4725 56.3484 89.596 56.2912C89.7263 56.2286 89.8431 56.1409 89.9395 56.0332C90.0359 55.9254 90.1102 55.7997 90.158 55.6632C90.382 55.0672 89.838 54.8632 89.316 54.6072C88.794 54.3512 88.493 54.1422 88.269 54.7382H88.27Z" fill="#0D0B6D"/>
</g>
<defs>
<linearGradient id="paint0_linear_2_1616" x1="74.5516" y1="109.139" x2="129.626" y2="194.357" gradientUnits="userSpaceOnUse">
<stop stop-color="white"/>
<stop offset="1" stop-color="white" stop-opacity="0"/>
</linearGradient>
<linearGradient id="paint1_linear_2_1616" x1="64.9486" y1="94.8365" x2="132.981" y2="200.107" gradientUnits="userSpaceOnUse">
<stop stop-color="white"/>
<stop offset="1" stop-color="white" stop-opacity="0"/>
</linearGradient>
<linearGradient id="paint2_linear_2_1616" x1="55.3465" y1="80.5331" x2="136.337" y2="205.854" gradientUnits="userSpaceOnUse">
<stop stop-color="white"/>
<stop offset="1" stop-color="white" stop-opacity="0"/>
</linearGradient>
<linearGradient id="paint3_linear_2_1616" x1="-40.2335" y1="107.684" x2="27.7985" y2="212.954" gradientUnits="userSpaceOnUse">
<stop stop-color="white"/>
<stop offset="1" stop-color="white" stop-opacity="0"/>
</linearGradient>
<linearGradient id="paint4_linear_2_1616" x1="-49.8365" y1="93.3823" x2="31.1545" y2="218.702" gradientUnits="userSpaceOnUse">
<stop stop-color="white"/>
<stop offset="1" stop-color="white" stop-opacity="0"/>
</linearGradient>
<clipPath id="clip0_2_1616">
<rect width="121.594" height="121.594" fill="white" transform="translate(0.75 0.305664)"/>
</clipPath>
</defs>
</svg>
