<svg width="122" height="122" viewBox="0 0 122 122" fill="none" xmlns="http://www.w3.org/2000/svg">
<g clip-path="url(#clip0_2_1506)">
<path fill-rule="evenodd" clip-rule="evenodd" d="M69.5208 46.1829C69.5208 65.3369 53.9788 80.8639 34.8068 80.8639C15.6358 80.8639 0.09375 65.3369 0.09375 46.1839C0.09375 27.0299 15.6358 11.5029 34.8068 11.5029C53.9788 11.5029 69.5208 27.0299 69.5208 46.1829V46.1829Z" fill="#ECF6FF"/>
<path d="M34.8079 36.1611V107.096ZM34.8079 69.0511L42.5349 61.3311ZM35.0999 45.8771L39.0789 41.9021ZM34.8079 57.5331L27.4019 50.1331Z" fill="black"/>
<path d="M34.8079 36.1611V107.096M34.8079 69.0511L42.5349 61.3311M35.0999 45.8771L39.0789 41.9021M34.8079 57.5331L27.4019 50.1331" stroke="#B6D4FF" stroke-width="1.043"/>
<path fill-rule="evenodd" clip-rule="evenodd" d="M134.22 100.94L140.118 132.626H133.001L127.103 100.94H134.22V100.94ZM31.6366 100.94L37.5336 132.626H30.4166L24.5186 100.94H31.6356H31.6366Z" fill="#CCE3FF"/>
<path fill-rule="evenodd" clip-rule="evenodd" d="M17.4209 121.596L18.4759 127.274H25.5949L24.5379 121.596H17.4209Z" fill="#CCE3FF"/>
<path fill-rule="evenodd" clip-rule="evenodd" d="M24.5376 121.596L25.5946 127.274H145.371L144.314 121.596H24.5376Z" fill="#D7EBFF"/>
<path fill-rule="evenodd" clip-rule="evenodd" d="M15.4976 111.268L16.5526 116.945H23.6726L22.6146 111.268H15.4976V111.268Z" fill="#CCE3FF"/>
<path fill-rule="evenodd" clip-rule="evenodd" d="M22.6157 111.268L23.6727 116.945H143.449L142.392 111.268H22.6157V111.268Z" fill="#D7EBFF"/>
<path fill-rule="evenodd" clip-rule="evenodd" d="M20.6937 100.94L21.7477 106.617H14.6317L13.5767 100.94H20.6927H20.6937Z" fill="#CCE3FF"/>
<path fill-rule="evenodd" clip-rule="evenodd" d="M140.469 100.94L141.527 106.617H21.7498L20.6948 100.94H140.469V100.94Z" fill="#D7EBFF"/>
<mask id="mask0_2_1506" style="mask-type:alpha" maskUnits="userSpaceOnUse" x="102" y="73" width="60" height="61">
<path d="M144.47 73.1455H119.709C110.079 73.1455 102.273 80.9519 102.273 90.5815V115.6C102.273 125.229 110.079 133.036 119.709 133.036H144.47C154.1 133.036 161.906 125.229 161.906 115.6V90.5815C161.906 80.9519 154.1 73.1455 144.47 73.1455Z" fill="#F2F5F7"/>
</mask>
<g mask="url(#mask0_2_1506)">
<path d="M144.47 73.5244H119.709C110.289 73.5244 102.652 81.1611 102.652 90.5814V115.599C102.652 125.02 110.289 132.656 119.709 132.656H144.47C153.89 132.656 161.527 125.02 161.527 115.599V90.5814C161.527 81.1611 153.89 73.5244 144.47 73.5244Z" fill="white" stroke="#EBF1F8" stroke-width="0.758"/>
<path d="M131.827 87.3164C137.239 91.8364 143.446 91.5574 145.219 91.5574C144.831 117.263 141.876 112.165 131.827 119.373C121.779 112.165 118.842 117.263 118.454 91.5574C120.209 91.5574 126.415 91.8364 131.827 87.3164Z" fill="black" stroke="#3375BB" stroke-width="4.084" stroke-miterlimit="10" stroke-linecap="round" stroke-linejoin="round"/>
</g>
<path d="M81.2138 133.699L77.2958 171.649H66.7588L68.5418 133.699H61.0698C55.4098 133.699 50.8218 129.149 50.8218 123.535V119.017H102.714C110.04 119.017 115.71 125.445 114.803 132.723L109.741 171.649H99.0238L99.5178 133.699H81.2138V133.699Z" fill="#19141E"/>
<path opacity="0.102" fill-rule="evenodd" clip-rule="evenodd" d="M50.8208 119.017H73.8248C78.5768 119.017 82.2918 123.083 81.8258 127.774L77.2958 171.649H66.7588L68.5418 133.699H61.0698C55.4098 133.699 50.8218 129.149 50.8218 123.535V119.017H50.8208Z" fill="white"/>
<path d="M90.9666 98.5381C88.9546 102.505 81.8916 115.529 76.8566 113.451C73.0866 111.896 68.5746 99.0011 68.5746 99.0011L75.9106 94.6161L79.2066 103.478L85.9366 96.1351C85.7086 94.6791 85.5256 92.7771 85.9806 92.1071C86.7566 90.9651 90.6806 87.4491 90.6806 87.4491L91.3956 93.4071L91.5206 92.9051C91.5206 92.8771 91.5276 92.8461 91.5406 92.8141L91.5456 92.8041L91.8346 91.6411C91.7136 91.5811 91.6636 91.4931 91.7156 91.3711C91.7807 91.2469 91.8713 91.1378 91.9816 91.0511L92.9676 87.0821C92.9676 87.0821 93.2916 87.2271 93.7656 87.4431C94.5296 87.2851 97.2936 89.1731 97.3356 89.2011C97.8986 89.5661 96.5596 95.6011 95.4726 96.7211C94.6986 97.5191 92.2926 98.2071 90.9666 98.5381V98.5381ZM46.0236 125.446L46.4736 126.303C46.4736 126.303 46.8796 127.003 47.3056 128.224C47.7316 129.446 47.5546 130.193 48.4756 132.112C49.5206 134.291 47.6506 133.392 46.9806 132.442C46.4576 131.699 46.5166 130.696 45.8376 130.247C45.6106 130.611 45.0916 131.132 44.8016 134.275C44.7496 134.839 45.0036 136.667 45.0036 136.667C45.0096 137.215 45.0796 138.357 44.4586 138.532C44.3046 138.575 44.1036 138.404 44.1036 138.404C44.1036 138.404 44.1636 139.119 43.5296 139.261C43.2796 139.317 42.7846 137.774 42.7846 137.774C42.7846 137.774 42.7086 138.558 42.2346 138.645C42.1006 138.669 40.5186 134.197 40.5186 134.197L40.6146 135.207L40.8246 136.242C40.8246 136.242 40.8076 136.799 40.3616 136.897C40.1846 136.936 39.8456 136.007 39.5276 134.915C39.0326 133.214 39.0426 131.937 39.1876 130.666C39.3646 129.131 39.2856 128.615 39.9666 126.732C40.0476 126.507 40.1566 126.248 40.2786 125.982C39.9056 122.745 38.8536 113.27 38.9826 110.362C39.1386 106.833 42.8606 99.0011 42.8606 99.0011L50.4176 103.244L46.2526 110.865L46.0236 125.446V125.446ZM64.1036 90.3491C59.7266 90.0911 57.8796 87.3591 57.4586 86.6201C60.2356 86.4281 60.5256 86.4561 64.2256 86.8401C65.7256 86.9971 66.7776 87.3171 67.7966 87.5971C68.0166 88.3491 68.3306 90.5971 64.1036 90.3491Z" fill="#F6B852"/>
<mask id="mask1_2_1506" style="mask-type:alpha" maskUnits="userSpaceOnUse" x="42" y="86" width="38" height="33">
<path d="M76.5697 94.5268L76.5957 94.5218L79.5777 101.405L75.3217 103.896L74.4337 118.924H50.1897L49.7837 104.104L42.1177 98.3468C42.1177 98.3468 45.7327 91.0668 51.9177 88.1688C53.9177 87.2318 55.7517 86.7888 57.4577 86.6198C57.5977 86.6058 57.4877 86.6098 57.5047 86.6758C57.5258 86.7317 57.5537 86.7848 57.5877 86.8338C57.6267 86.8968 57.6267 86.8768 57.8187 87.1608C58.0107 87.4458 58.2957 87.7288 58.7247 88.1688C59.1208 88.5588 59.5682 88.8929 60.0547 89.1618C60.6047 89.4698 61.1437 89.6758 61.4897 89.8218C61.8017 89.9538 62.0647 90.0228 62.3197 90.0838C63.0387 90.2548 63.5977 90.3088 64.7397 90.3678C64.8777 90.3758 65.6797 90.3158 65.8217 90.2878C66.0217 90.2478 66.2027 90.2108 66.4307 90.1488C66.8855 89.9969 67.2894 89.7221 67.5977 89.3548C67.7567 89.1568 67.9077 88.5048 67.8607 88.0248C67.8147 87.5458 67.6057 87.5448 67.7967 87.5978C71.1457 88.5128 74.3097 90.3998 76.1597 93.7478C76.3097 94.0178 76.4457 94.2768 76.5697 94.5268V94.5268Z" fill="#3375BB"/>
</mask>
<g mask="url(#mask1_2_1506)">
<path d="M76.5697 94.5268L76.5957 94.5218L79.5777 101.405L75.3217 103.896L74.4337 118.924H50.1897L49.7837 104.104L42.1177 98.3468C42.1177 98.3468 45.7327 91.0668 51.9177 88.1688C53.9177 87.2318 55.7517 86.7888 57.4577 86.6198C57.5977 86.6058 57.4877 86.6098 57.5047 86.6758C57.5258 86.7317 57.5537 86.7848 57.5877 86.8338C57.6267 86.8968 57.6267 86.8768 57.8187 87.1608C58.0107 87.4458 58.2957 87.7288 58.7247 88.1688C59.1208 88.5588 59.5682 88.8929 60.0547 89.1618C60.6047 89.4698 61.1437 89.6758 61.4897 89.8218C61.8017 89.9538 62.0647 90.0228 62.3197 90.0838C63.0387 90.2548 63.5977 90.3088 64.7397 90.3678C64.8777 90.3758 65.6797 90.3158 65.8217 90.2878C66.0217 90.2478 66.2027 90.2108 66.4307 90.1488C66.8855 89.9969 67.2894 89.7221 67.5977 89.3548C67.7567 89.1568 67.9077 88.5048 67.8607 88.0248C67.8147 87.5458 67.6057 87.5448 67.7967 87.5978C71.1457 88.5128 74.3097 90.3998 76.1597 93.7478C76.3097 94.0178 76.4457 94.2768 76.5697 94.5268V94.5268Z" fill="#3375BB"/>
</g>
<g opacity="0.201">
<path d="M49.7837 104.103L51.7287 105.424L56.4027 99.9736" fill="black"/>
<path d="M49.7837 104.103L51.7287 105.424L56.4027 99.9736" stroke="black" stroke-width="0.834"/>
</g>
<path d="M94.1785 94.4678L93.8385 96.1318H88.3545L90.9415 82.8838H96.4265L95.4225 88.0278L94.3435 87.5278L94.0075 87.4338L93.7435 87.4488L93.6285 87.5268V87.8488L94.8005 89.5378L93.9045 89.9288L92.5245 90.6538L92.1245 90.9308L91.9705 91.0738L91.8445 91.1868L91.7645 91.2848L91.7155 91.3718L91.6955 91.4838L91.7155 91.5338L91.7405 91.5728L91.7745 91.6068L92.2275 91.7668L93.2595 91.4838H94.2795L92.9175 91.7668L92.0205 92.3048L91.7155 92.5928L91.5435 92.8038V92.9968L91.8445 93.1328L93.7435 92.9148L93.1145 93.2568L92.6975 93.5158L92.3165 93.7128L92.0205 94.0948V94.2828L92.1255 94.3928L92.3905 94.5348H93.6095L94.1785 94.4678V94.4678Z" fill="#5E93D1"/>
<path fill-rule="evenodd" clip-rule="evenodd" d="M88.3538 96.1318H87.4458L90.0328 82.8838H90.9398L88.3538 96.1318ZM91.8858 84.4218C91.8098 84.8088 91.5848 85.0908 91.3838 85.0518C91.1818 85.0118 91.0798 84.6668 91.1558 84.2798C91.2318 83.8918 91.4558 83.6098 91.6578 83.6498C91.8598 83.6898 91.9608 84.0348 91.8858 84.4218Z" fill="#020101"/>
<path fill-rule="evenodd" clip-rule="evenodd" d="M74.5617 70.1599L55.7517 70.6389L55.7377 70.3359L55.5137 65.7049L55.3437 62.1799C55.3303 61.914 55.3735 61.6484 55.4704 61.4004C55.5673 61.1525 55.7158 60.928 55.906 60.7418C56.0962 60.5555 56.3238 60.4118 56.5737 60.3201C56.8237 60.2284 57.0902 60.1909 57.3557 60.2099L72.4807 61.3239C72.9389 61.3578 73.3689 61.5583 73.6895 61.8875C74.01 62.2167 74.199 62.6519 74.2207 63.1109L74.3027 64.7749L74.5267 69.4379L74.5617 70.1599V70.1599Z" fill="#19141E"/>
<path fill-rule="evenodd" clip-rule="evenodd" d="M74.5267 69.4375C71.8067 69.8035 68.6327 70.0915 65.2407 70.2565C61.7737 70.4255 58.5227 70.4435 55.7377 70.3365L55.5137 65.7045C58.2737 65.3265 61.5127 65.0285 64.9807 64.8615C68.3737 64.6965 71.5577 64.6755 74.3027 64.7745L74.5267 69.4375V69.4375Z" fill="#5E93D1"/>
<path d="M66.3976 87.7495L66.2436 82.4065C66.2436 82.4065 72.7186 82.9235 74.1036 82.2015C74.1036 82.2015 75.7966 73.4545 73.7776 68.6115L73.7376 68.4215L60.0716 67.1455L59.1576 74.4855C58.6976 73.1235 55.0466 71.7775 54.0536 73.7265C51.9016 77.9515 59.5966 80.7965 59.5966 80.7965L58.8146 87.8135" fill="#F6B852"/>
<path opacity="0.398" fill-rule="evenodd" clip-rule="evenodd" d="M66.2434 82.4058L61.8774 81.4678L66.2234 84.4118L66.2434 82.4068V82.4058Z" fill="black"/>
<path fill-rule="evenodd" clip-rule="evenodd" d="M69.8457 73.6748L71.3547 77.3738L69.5457 77.3968L69.8457 73.6748ZM68.1257 74.7258C68.1471 74.844 68.145 74.9652 68.1195 75.0826C68.0941 75.2 68.0458 75.3112 67.9773 75.4099C67.9089 75.5087 67.8217 75.5929 67.7207 75.6579C67.6197 75.7229 67.5069 75.7674 67.3887 75.7888C67.2705 75.8102 67.1492 75.8081 67.0319 75.7827C66.9145 75.7572 66.8032 75.7089 66.7045 75.6405C66.6058 75.572 66.5216 75.4848 66.4566 75.3838C66.3916 75.2828 66.3471 75.17 66.3257 75.0518C66.2825 74.8131 66.3358 74.567 66.474 74.3677C66.6122 74.1683 66.824 74.032 67.0627 73.9888C67.3014 73.9456 67.5475 73.9989 67.7468 74.1371C67.9462 74.2754 68.0824 74.4871 68.1257 74.7258ZM72.8717 74.7258C72.9149 74.9645 72.8615 75.2106 72.7233 75.4099C72.5851 75.6093 72.3734 75.7456 72.1347 75.7888C71.896 75.832 71.6499 75.7787 71.4505 75.6405C71.2512 75.5022 71.1149 75.2905 71.0717 75.0518C71.0503 74.9336 71.0524 74.8124 71.0778 74.695C71.1033 74.5776 71.1516 74.4664 71.22 74.3677C71.2885 74.269 71.3757 74.1847 71.4767 74.1197C71.5777 74.0547 71.6905 74.0102 71.8087 73.9888C72.0474 73.9456 72.2935 73.9989 72.4928 74.1371C72.5915 74.2056 72.6758 74.2928 72.7408 74.3938C72.8058 74.4948 72.8503 74.6076 72.8717 74.7258V74.7258Z" fill="#0D0B6D"/>
<path fill-rule="evenodd" clip-rule="evenodd" d="M67.9697 78.4443C67.9697 78.4443 68.6017 79.4723 69.8537 79.3843L67.9697 78.4443Z" fill="white"/>
<path d="M67.9697 78.4443C67.9697 78.4443 68.6017 79.4723 69.8537 79.3843Z" fill="black"/>
<path d="M67.9697 78.4443C67.9697 78.4443 68.6017 79.4723 69.8537 79.3843" stroke="#252535" stroke-width="0.719"/>
<path fill-rule="evenodd" clip-rule="evenodd" d="M74.5054 71.3318L74.2904 70.2218C73.9194 68.7438 62.7624 69.3078 62.7624 69.3078L62.9144 71.2948L62.7274 72.2448C53.6994 72.5048 46.6954 71.7138 46.6294 70.3478C46.5574 68.8578 54.7734 67.2478 64.9794 66.7518C75.1874 66.2558 83.5194 67.0618 83.5914 68.5518C83.6394 69.5478 79.9834 70.5968 74.5054 71.3318V71.3318Z" fill="#19141E"/>
<path fill-rule="evenodd" clip-rule="evenodd" d="M60.7085 76.7796C60.6945 76.7478 60.6802 76.7161 60.6655 76.6846C59.2405 73.6266 56.7425 72.9916 56.0525 72.8716C55.9345 71.8816 55.8445 71.0916 55.8445 71.0916C55.7345 69.7386 62.7625 69.3076 62.7625 69.3076C62.7625 69.3076 63.4485 75.6776 63.0155 76.2206C62.7455 76.5606 61.7975 76.7166 60.7085 76.7806V76.7796Z" fill="#19141E"/>
</g>
<defs>
<clipPath id="clip0_2_1506">
<rect width="121.594" height="121.594" fill="white" transform="translate(0.09375 0.305664)"/>
</clipPath>
</defs>
</svg>
