<svg width="170" height="39" viewBox="0 0 170 39" fill="none" xmlns="http://www.w3.org/2000/svg">
<g clip-path="url(#clip0_2_2202)">
<path fill-rule="evenodd" clip-rule="evenodd" d="M1.51313 7.46129C0.21875 10.0025 0.21875 13.3275 0.21875 19.9775C0.21875 26.6275 0.21875 29.9525 1.51313 32.4938C2.65313 34.7263 4.47 36.5431 6.7025 37.6831C9.24375 38.9775 12.5687 38.9775 19.2188 38.9775C25.8688 38.9775 29.1938 38.9775 31.7351 37.6831C33.9676 36.5431 35.7844 34.7263 36.9244 32.4938C38.2188 29.9525 38.2188 26.6275 38.2188 19.9775C38.2188 13.3275 38.2188 10.0025 36.9244 7.46129C35.7844 5.22879 33.9676 3.41192 31.7351 2.27192C29.1938 0.977539 25.8688 0.977539 19.2188 0.977539C12.5687 0.977539 9.24375 0.977539 6.7025 2.27192C4.47 3.41192 2.65313 5.22879 1.51313 7.46129ZM28.701 11.2256C29.0335 11.2256 29.3482 11.3622 29.5798 11.5938C29.8113 11.8313 29.9419 12.1519 29.9359 12.4784C29.8766 16.0172 29.7401 18.7247 29.4848 20.8681C29.2354 23.0116 28.8613 24.6028 28.2973 25.8913C27.9173 26.7522 27.4482 27.4647 26.896 28.0703C26.1538 28.8719 25.3048 29.4538 24.3785 30.006C23.9825 30.2428 23.5707 30.4766 23.1388 30.7219C22.2173 31.2452 21.2042 31.8206 20.056 32.5888C19.6404 32.8678 19.1001 32.8678 18.6845 32.5888C17.5187 31.8116 16.492 31.2291 15.5622 30.7016C15.3554 30.5843 15.1534 30.4697 14.9557 30.3563C13.8692 29.7269 12.8894 29.1272 12.0344 28.2603C11.4644 27.6903 10.9717 26.9956 10.5798 26.1703C10.0454 25.0659 9.68317 23.73 9.41599 22.0022C9.05973 19.6925 8.88161 16.6703 8.8163 12.4784C8.81036 12.1519 8.93505 11.8313 9.16661 11.5938C9.39817 11.3622 9.7188 11.2256 10.0513 11.2256H10.5619C12.1353 11.2316 15.6087 11.0772 18.6131 8.73786C19.0584 8.39348 19.682 8.39348 20.1273 8.73786C23.1317 11.0772 26.6051 11.2316 28.1845 11.2256H28.701ZM25.9401 25.1016C26.326 24.3059 26.6467 23.2075 26.8901 21.6281C27.181 19.74 27.3591 17.175 27.4422 13.6838C25.5897 13.6303 22.4072 13.2741 19.3731 11.2316C16.3391 13.2681 13.1567 13.6244 11.3101 13.6838C11.3754 16.5694 11.5059 18.8138 11.7137 20.5772C11.9512 22.5841 12.2898 23.9438 12.7113 24.8997C12.9904 25.535 13.2991 25.9922 13.6672 26.3959C14.16 26.9363 14.7835 27.3816 15.6326 27.8922C15.9848 28.1035 16.373 28.3233 16.7957 28.5626C17.5488 28.9888 18.411 29.4768 19.3731 30.0891C20.3175 29.4868 21.1673 29.0038 21.9116 28.5807C22.136 28.4532 22.3508 28.3311 22.5557 28.2128C23.6007 27.6131 24.3726 27.1144 24.9485 26.5325C25.3345 26.1347 25.6492 25.7013 25.9401 25.1016Z" fill="#3375BB"/>
<path d="M53.5509 16.1854H49.2949V13.6774H60.8849V16.1854H56.6289V26.9774H53.5509V16.1854ZM64.3704 18.1044C64.725 17.6104 65.2 17.2367 65.7954 16.9834C66.4034 16.7301 67.1 16.6034 67.8854 16.6034V19.3394C67.556 19.3141 67.3344 19.3014 67.2204 19.3014C66.3717 19.3014 65.7067 19.5421 65.2254 20.0234C64.744 20.4921 64.5034 21.2014 64.5034 22.1514V26.9774H61.5394V16.7554H64.3704V18.1044ZM79.45 16.7554V26.9774H76.638V25.7614C76.2453 26.2047 75.7767 26.5467 75.232 26.7874C74.6873 27.0154 74.0983 27.1294 73.465 27.1294C72.1223 27.1294 71.0583 26.7431 70.273 25.9704C69.4876 25.1977 69.095 24.0514 69.095 22.5314V16.7554H72.059V22.0944C72.059 23.7411 72.7493 24.5644 74.13 24.5644C74.8393 24.5644 75.4093 24.3364 75.84 23.8804C76.2707 23.4117 76.486 22.7214 76.486 21.8094V16.7554H79.45ZM85.0649 27.1294C84.2163 27.1294 83.3866 27.0281 82.5759 26.8254C81.7653 26.6101 81.1193 26.3441 80.6379 26.0274L81.6259 23.8994C82.0819 24.1907 82.6329 24.4314 83.2789 24.6214C83.9249 24.7987 84.5583 24.8874 85.1789 24.8874C86.4329 24.8874 87.0599 24.5771 87.0599 23.9564C87.0599 23.6651 86.8889 23.4561 86.5469 23.3294C86.2049 23.2027 85.6793 23.0951 84.9699 23.0064C84.1339 22.8797 83.4436 22.7341 82.8989 22.5694C82.3543 22.4047 81.8793 22.1134 81.4739 21.6954C81.0813 21.2774 80.8849 20.6821 80.8849 19.9094C80.8849 19.2634 81.0686 18.6934 81.4359 18.1994C81.8159 17.6927 82.3606 17.3001 83.0699 17.0214C83.7919 16.7427 84.6406 16.6034 85.6159 16.6034C86.3379 16.6034 87.0536 16.6857 87.7629 16.8504C88.4849 17.0024 89.0803 17.2177 89.5489 17.4964L88.5609 19.6054C87.6616 19.0987 86.6799 18.8454 85.6159 18.8454C84.9826 18.8454 84.5076 18.9341 84.1909 19.1114C83.8743 19.2887 83.7159 19.5167 83.7159 19.7954C83.7159 20.1121 83.8869 20.3337 84.2289 20.4604C84.5709 20.5871 85.1156 20.7074 85.8629 20.8214C86.6989 20.9607 87.3829 21.1127 87.9149 21.2774C88.4469 21.4294 88.9093 21.7144 89.3019 22.1324C89.6946 22.5504 89.8909 23.1331 89.8909 23.8804C89.8909 24.5137 89.7009 25.0774 89.3209 25.5714C88.9409 26.0654 88.3836 26.4517 87.6489 26.7304C86.9269 26.9964 86.0656 27.1294 85.0649 27.1294ZM97.7427 26.4834C97.4514 26.6987 97.0904 26.8634 96.6597 26.9774C96.2417 27.0787 95.7984 27.1294 95.3297 27.1294C94.1137 27.1294 93.17 26.8191 92.4987 26.1984C91.84 25.5777 91.5107 24.6657 91.5107 23.4624V19.2634H89.9337V16.9834H91.5107V14.4944H94.4747V16.9834H97.0207V19.2634H94.4747V23.4244C94.4747 23.8551 94.5824 24.1907 94.7977 24.4314C95.0257 24.6594 95.3424 24.7734 95.7477 24.7734C96.2164 24.7734 96.6154 24.6467 96.9447 24.3934L97.7427 26.4834ZM123.958 13.6774L119.607 26.9774H116.301L113.375 17.9714L110.354 26.9774H107.067L102.697 13.6774H105.889L108.891 23.0254L112.026 13.6774H114.876L117.916 23.1014L121.013 13.6774H123.958ZM128.26 16.6034C129.843 16.6034 131.059 16.9834 131.908 17.7434C132.757 18.4907 133.181 19.6244 133.181 21.1444V26.9774H130.407V25.7044C129.85 26.6544 128.811 27.1294 127.291 27.1294C126.506 27.1294 125.822 26.9964 125.239 26.7304C124.669 26.4644 124.232 26.0971 123.928 25.6284C123.624 25.1597 123.472 24.6277 123.472 24.0324C123.472 23.0824 123.827 22.3351 124.536 21.7904C125.258 21.2457 126.366 20.9734 127.861 20.9734H130.217C130.217 20.3274 130.021 19.8334 129.628 19.4914C129.235 19.1367 128.646 18.9594 127.861 18.9594C127.316 18.9594 126.778 19.0481 126.246 19.2254C125.727 19.3901 125.283 19.6181 124.916 19.9094L123.852 17.8384C124.409 17.4457 125.074 17.1417 125.847 16.9264C126.632 16.7111 127.437 16.6034 128.26 16.6034ZM128.032 25.1344C128.539 25.1344 128.988 25.0204 129.381 24.7924C129.774 24.5517 130.052 24.2034 130.217 23.7474V22.7024H128.184C126.968 22.7024 126.36 23.1014 126.36 23.8994C126.36 24.2794 126.506 24.5834 126.797 24.8114C127.101 25.0267 127.513 25.1344 128.032 25.1344ZM135.294 12.8794H138.258V26.9774H135.294V12.8794ZM140.438 12.8794H143.402V26.9774H140.438V12.8794ZM155.596 21.9044C155.596 21.9424 155.577 22.2084 155.539 22.7024H147.806C147.946 23.3357 148.275 23.8361 148.794 24.2034C149.314 24.5707 149.96 24.7544 150.732 24.7544C151.264 24.7544 151.733 24.6784 152.138 24.5264C152.556 24.3617 152.943 24.1084 153.297 23.7664L154.874 25.4764C153.912 26.5784 152.506 27.1294 150.656 27.1294C149.504 27.1294 148.484 26.9077 147.597 26.4644C146.711 26.0084 146.027 25.3814 145.545 24.5834C145.064 23.7854 144.823 22.8797 144.823 21.8664C144.823 20.8657 145.058 19.9664 145.526 19.1684C146.008 18.3577 146.66 17.7307 147.483 17.2874C148.319 16.8314 149.25 16.6034 150.276 16.6034C151.277 16.6034 152.183 16.8187 152.993 17.2494C153.804 17.6801 154.437 18.3007 154.893 19.1114C155.362 19.9094 155.596 20.8404 155.596 21.9044ZM150.295 18.8454C149.624 18.8454 149.06 19.0354 148.604 19.4154C148.148 19.7954 147.87 20.3147 147.768 20.9734H152.803C152.702 20.3274 152.423 19.8144 151.967 19.4344C151.511 19.0417 150.954 18.8454 150.295 18.8454ZM163.593 26.4834C163.301 26.6987 162.94 26.8634 162.51 26.9774C162.092 27.0787 161.648 27.1294 161.18 27.1294C159.964 27.1294 159.02 26.8191 158.349 26.1984C157.69 25.5777 157.361 24.6657 157.361 23.4624V19.2634H155.784V16.9834H157.361V14.4944H160.325V16.9834H162.871V19.2634H160.325V23.4244C160.325 23.8551 160.432 24.1907 160.648 24.4314C160.876 24.6594 161.192 24.7734 161.598 24.7734C162.066 24.7734 162.465 24.6467 162.795 24.3934L163.593 26.4834Z" fill="#3375BB"/>
<path fill-rule="evenodd" clip-rule="evenodd" d="M170.513 7.46129C169.219 10.0025 169.219 13.3275 169.219 19.9775C169.219 26.6275 169.219 29.9525 170.513 32.4938C171.653 34.7263 173.47 36.5431 175.703 37.6831C178.244 38.9775 181.569 38.9775 188.219 38.9775C194.869 38.9775 198.194 38.9775 200.735 37.6831C202.968 36.5431 204.785 34.7263 205.925 32.4938C207.219 29.9525 207.219 26.6275 207.219 19.9775C207.219 13.3275 207.219 10.0025 205.925 7.46129C204.785 5.22879 202.968 3.41192 200.735 2.27192C198.194 0.977539 194.869 0.977539 188.219 0.977539C181.569 0.977539 178.244 0.977539 175.703 2.27192C173.47 3.41192 171.653 5.22879 170.513 7.46129ZM197.701 11.2256C198.034 11.2256 198.348 11.3622 198.58 11.5938C198.812 11.8313 198.942 12.1519 198.936 12.4784C198.877 16.0172 198.74 18.7247 198.485 20.8681C198.236 23.0116 197.862 24.6028 197.298 25.8913C196.918 26.7522 196.448 27.4647 195.896 28.0703C195.154 28.8719 194.305 29.4538 193.379 30.006C192.983 30.2428 192.571 30.4766 192.139 30.7219C191.218 31.2452 190.204 31.8206 189.056 32.5888C188.641 32.8678 188.1 32.8678 187.685 32.5888C186.519 31.8116 185.492 31.2291 184.562 30.7016C184.356 30.5843 184.154 30.4697 183.956 30.3563C182.869 29.7269 181.89 29.1272 181.035 28.2603C180.465 27.6903 179.972 26.9956 179.58 26.1703C179.046 25.0659 178.683 23.73 178.416 22.0022C178.06 19.6925 177.882 16.6703 177.817 12.4784C177.811 12.1519 177.935 11.8313 178.167 11.5938C178.398 11.3622 178.719 11.2256 179.052 11.2256H179.562C181.136 11.2316 184.609 11.0772 187.613 8.73786C188.059 8.39348 188.682 8.39348 189.128 8.73786C192.132 11.0772 195.605 11.2316 197.185 11.2256H197.701ZM194.94 25.1016C195.326 24.3059 195.647 23.2075 195.89 21.6281C196.181 19.74 196.359 17.175 196.443 13.6838C194.59 13.6303 191.408 13.2741 188.373 11.2316C185.339 13.2681 182.157 13.6244 180.31 13.6838C180.376 16.5694 180.506 18.8138 180.714 20.5772C180.952 22.5841 181.29 23.9438 181.712 24.8997C181.991 25.535 182.299 25.9922 182.668 26.3959C183.16 26.9363 183.784 27.3816 184.633 27.8922C184.985 28.1035 185.373 28.3233 185.796 28.5626C186.549 28.9888 187.411 29.4768 188.373 30.0891C189.318 29.4868 190.168 29.0038 190.912 28.5807C191.136 28.4532 191.351 28.3311 191.556 28.2128C192.601 27.6131 193.373 27.1144 193.949 26.5325C194.335 26.1347 194.649 25.7013 194.94 25.1016Z" fill="white"/>
</g>
<defs>
<clipPath id="clip0_2_2202">
<rect width="338" height="38" fill="white" transform="translate(0.21875 0.977539)"/>
</clipPath>
</defs>
</svg>
